<svg xmlns="http://www.w3.org/2000/svg" viewBox="0 0 145.02 86.144"><path d="M86.23 42.967c-1.684 1.685-4.012 2.727-6.58 2.727-5.14 0-9.306-4.168-9.306-9.31 0-5.14 4.165-9.307 9.306-9.307 2.57 0 4.896 1.042 6.58 2.727l6.58-6.582c-3.368-3.37-8.02-5.453-13.16-5.453-10.28 0-18.612 8.334-18.612 18.616S69.37 55.003 79.65 55.003c5.14 0 9.792-2.084 13.16-5.453l-6.58-6.583zM51.71 17.77c.014-3.847 3.133-6.986 6.982-6.986v-9.31c-8.99 0-16.275 7.31-16.29 16.296h-4.628v9.306h4.657V55h9.296V27.078h6.972V17.77H51.71zM9.46 19.25c2.74-.963 5.44-1.487 7.848-1.487 4.73 0 8.546.988 11.454 3.226 2.906 2.236 4.36 5.642 4.36 10.216v23.79h-9.307V53.8c-2.907 1.145-6.013 1.716-7.793 1.716-3.99 0-7.268-1.143-9.828-3.43-2.563-2.287-3.71-5.353-3.71-8.932 0-3.777 1.28-6.79 4.116-9.3 2.833-2.51 6.392-3.766 10.68-3.766 2.905 0 3.855.478 6.615 1.123.098-1.34-.406-2.564-1.487-3.36-1.086-.795-2.784-1.218-5.1-1.268-1.994 0-3.847.33-5.684.956L9.46 19.25zm14.36 26.022v-5.715c-3.052-.782-4.263-1.076-6.02-1.16-1.888-.093-3.29.272-4.54 1.252-1.043.817-1.525 1.97-1.525 3.115 0 1.094.435 1.997 1.343 2.908.792.79 2.615 1.267 4.004 1.267 2.09 0 4.387-.5 6.738-1.668z" fill="#1A171B"/><g fill="#C00318"><path d="M116.45 39.557c-3.054-.782-4.266-1.076-6.02-1.16-1.89-.093-3.29.272-4.542 1.252-1.044.817-1.525 1.97-1.525 3.115 0 1.094.435 1.997 1.344 2.908.79.79 2.613 1.267 4.005 1.267 2.087 0 4.385-.498 6.737-1.667v-5.716zM139.292 54.997c1.79 0 3.244-1.452 3.244-3.244v-40.95c0-1.79-1.453-3.243-3.244-3.243H98.355c-1.792 0-3.243 1.452-3.243 3.244v32.35c0-3.778 1.282-6.79 4.117-9.302 2.83-2.51 6.39-3.765 10.678-3.765 2.905 0 3.856.478 6.615 1.123.098-1.342-.405-2.565-1.487-3.36-1.085-.796-2.784-1.22-5.098-1.27-1.995 0-3.85.332-5.686.957l-2.164-8.287c2.74-.964 5.44-1.488 7.85-1.488 4.728 0 8.546.988 11.452 3.226 2.907 2.237 4.36 5.643 4.36 10.217v23.79"/></g><path d="M7.496 70.976H6.322v-.554c-.162.19-.347.35-.555.487-.208.134-.442.202-.704.202-.315 0-.61-.032-.885-.095s-.517-.165-.723-.304c-.207-.14-.372-.33-.493-.568-.122-.24-.182-.534-.182-.886 0-.344.066-.643.196-.9s.308-.47.534-.635c.224-.166.482-.293.77-.38.29-.084.59-.127.906-.127.27 0 .504.067.702.203.198.136.36.32.487.556 0-.2-.006-.4-.02-.602-.014-.203-.054-.388-.122-.554-.068-.167-.174-.302-.317-.406-.145-.104-.347-.156-.608-.156-.207 0-.415.034-.622.102-.207.068-.402.15-.582.25l-.42-.892c.253-.153.525-.28.82-.378.29-.1.588-.15.884-.15.658 0 1.175.2 1.548.596.374.397.56.92.56 1.567v3.623zM6.4 69.19c0-.18-.04-.33-.127-.452-.085-.12-.194-.22-.324-.298-.13-.076-.276-.13-.433-.162-.157-.032-.307-.048-.453-.048-.333 0-.623.074-.87.223-.25.15-.373.408-.373.777 0 .18.037.327.108.44.073.112.17.2.29.263.123.063.255.106.4.128.143.024.292.035.445.035.136 0 .28-.016.44-.047.157-.032.3-.08.43-.15.13-.066.242-.16.333-.276.092-.115.135-.26.135-.43zM9.523 70.002l.88-.703c.153.215.344.387.574.513.23.126.48.19.75.19.234 0 .427-.052.58-.157.154-.103.23-.285.23-.547 0-.172-.06-.307-.18-.407-.124-.1-.275-.19-.456-.27-.178-.08-.372-.164-.58-.25-.208-.085-.4-.203-.58-.35-.18-.15-.332-.34-.454-.57-.12-.23-.183-.528-.183-.898 0-.217.045-.413.136-.588.09-.176.208-.324.357-.446.15-.12.317-.213.506-.277.19-.062.388-.094.595-.094.315 0 .633.04.953.12.322.082.59.254.806.515l-.515.77c-.135-.144-.297-.246-.485-.304-.19-.058-.384-.087-.582-.087-.18 0-.347.047-.5.142-.153.095-.23.24-.23.44 0 .188.066.335.196.438.13.104.29.196.48.277.19.08.398.162.627.243.23.08.44.19.63.324.188.135.348.308.478.52.13.213.196.49.196.832 0 .28-.056.526-.167.743-.115.216-.264.397-.453.54-.19.145-.407.256-.65.332-.242.076-.49.115-.744.115-.458 0-.878-.09-1.256-.27-.376-.18-.695-.46-.957-.838zM15.66 70.002l.878-.703c.153.215.343.387.573.513.23.126.48.19.75.19.236 0 .43-.052.583-.157.153-.103.23-.285.23-.547 0-.172-.06-.307-.183-.407-.122-.1-.273-.19-.453-.27-.18-.08-.374-.164-.58-.25-.208-.085-.403-.203-.582-.35-.18-.15-.332-.34-.455-.57-.12-.23-.18-.528-.18-.898 0-.217.044-.413.135-.588.09-.176.21-.324.356-.446.15-.12.32-.213.508-.277.19-.062.387-.094.595-.094.315 0 .633.04.953.12.32.082.59.254.804.515l-.514.77c-.135-.144-.297-.246-.486-.304-.19-.058-.383-.087-.582-.087-.18 0-.347.047-.5.142-.154.095-.23.24-.23.44 0 .188.065.335.197.438.13.104.29.196.48.277.188.08.397.162.627.243.23.08.44.19.628.324.19.135.35.308.48.52.13.213.195.49.195.832 0 .28-.055.526-.168.743-.113.216-.264.397-.453.54-.19.145-.406.256-.65.332-.242.076-.49.115-.742.115-.46 0-.88-.09-1.258-.27-.374-.18-.694-.46-.955-.838zM28.01 68.123c0 .46-.08.874-.236 1.244-.158.37-.377.687-.656.953-.28.265-.61.47-.992.615-.384.144-.8.216-1.25.216-.452 0-.867-.07-1.246-.208-.376-.14-.7-.342-.97-.608-.272-.266-.483-.584-.636-.953-.154-.368-.23-.783-.23-1.242 0-.45.08-.86.243-1.23.162-.37.383-.687.662-.953.278-.266.61-.47.992-.615.383-.144.8-.216 1.25-.216.442 0 .852.072 1.23.216.38.144.704.347.974.608.27.26.48.577.636.946.152.37.228.78.228 1.23zm-3.095-1.973c-.27 0-.524.05-.762.15-.24.098-.447.233-.622.405-.174.17-.312.374-.41.608-.1.234-.15.486-.15.757 0 .595.16 1.088.48 1.48.32.392.794.59 1.426.59.613 0 1.102-.188 1.467-.562.365-.374.548-.867.548-1.48 0-.586-.182-1.056-.547-1.412-.366-.358-.842-.536-1.428-.536zM29.605 68.15c0-.413.06-.805.183-1.175.12-.37.3-.696.534-.98.234-.284.52-.51.857-.676.337-.167.727-.25 1.167-.25.36 0 .723.044 1.09.135.363.09.676.265.938.527l-.622.892c-.19-.207-.41-.333-.662-.38-.252-.044-.508-.067-.77-.067-.26 0-.49.06-.688.183-.198.122-.366.282-.5.48-.136.198-.238.417-.304.655-.068.24-.102.47-.102.696 0 .235.038.458.115.67.076.212.184.4.318.56.136.163.302.294.5.393.2.1.42.15.663.15.244 0 .492-.014.743-.042.253-.026.48-.12.677-.283l.594.892c-.153.143-.302.256-.446.337-.143.08-.295.14-.452.175-.158.036-.323.057-.494.06-.172.005-.357.008-.555.008-.406 0-.78-.08-1.122-.243-.34-.162-.637-.38-.884-.65s-.44-.582-.573-.938c-.134-.357-.202-.733-.202-1.13zM36.51 63.744c0-.207.07-.372.21-.494.14-.122.307-.182.506-.182.198 0 .364.06.5.176.135.117.2.28.2.486 0 .207-.065.38-.2.513-.136.135-.307.203-.514.203-.207 0-.376-.065-.506-.196-.13-.13-.196-.3-.196-.506zm.054 1.527h1.244v5.705h-1.23l-.014-5.704zM44.632 70.976h-1.176v-.554c-.163.19-.347.35-.555.487-.207.134-.44.202-.7.202-.318 0-.612-.032-.887-.095-.274-.063-.516-.165-.723-.304-.208-.14-.372-.33-.493-.568-.122-.24-.182-.534-.182-.885 0-.343.065-.642.195-.9.13-.256.308-.468.535-.634.224-.166.482-.293.77-.38.29-.084.59-.127.905-.127.272 0 .505.066.703.202.198.135.36.32.487.555 0-.2-.007-.4-.02-.602-.014-.203-.055-.388-.122-.554-.068-.166-.174-.3-.32-.405-.142-.104-.345-.156-.605-.156-.207 0-.415.033-.622.1-.206.07-.4.152-.58.25l-.42-.89c.253-.154.525-.28.818-.38.294-.1.588-.148.886-.148.656 0 1.172.2 1.547.595.374.397.562.92.562 1.567v3.622zm-1.095-1.785c0-.18-.043-.33-.13-.452-.084-.12-.193-.22-.323-.298-.13-.076-.274-.13-.43-.162-.16-.032-.31-.048-.454-.048-.334 0-.624.074-.87.223-.25.15-.373.408-.373.777 0 .18.037.327.108.44.072.112.17.2.29.263.122.063.255.106.4.128.143.024.29.035.445.035.134 0 .28-.016.44-.047.157-.032.3-.08.43-.15.13-.066.242-.16.333-.276.09-.115.134-.26.134-.43zM49.7 65.515v1.217h-.77v4.244h-1.177v-4.244h-.73v-1.217h.772V62.92l1.162-.42v3.015h.743zM51.875 63.744c0-.207.07-.372.21-.494.14-.122.307-.182.506-.182.2 0 .365.06.5.176.135.117.203.28.203.486 0 .207-.068.38-.202.513-.135.135-.305.203-.512.203-.207 0-.376-.065-.506-.196-.13-.13-.197-.3-.197-.506zm.054 1.527h1.242v5.705h-1.23l-.013-5.704zM61.55 68.123c0 .46-.078.874-.237 1.244-.157.37-.375.687-.654.953-.28.265-.612.47-.995.615-.382.144-.8.216-1.25.216s-.865-.07-1.242-.208c-.38-.14-.704-.342-.973-.608-.27-.266-.482-.584-.636-.953-.153-.368-.23-.783-.23-1.242 0-.45.082-.86.243-1.23.163-.37.383-.687.662-.953.278-.266.61-.47.993-.615.382-.144.8-.216 1.25-.216.44 0 .852.072 1.23.216.378.144.703.347.972.608.272.26.483.577.636.946.153.37.23.78.23 1.23zm-3.095-1.973c-.27 0-.524.05-.763.15-.24.098-.446.233-.622.405-.175.17-.313.374-.413.608-.098.234-.147.486-.147.757 0 .595.158 1.088.48 1.48.32.392.794.59 1.424.59.613 0 1.102-.188 1.467-.562.365-.374.548-.867.548-1.48 0-.586-.183-1.056-.547-1.412-.363-.358-.838-.536-1.425-.536zM67.253 70.976V67.92c0-.19-.015-.37-.047-.546-.032-.176-.087-.336-.17-.48-.08-.144-.19-.258-.33-.344-.14-.086-.322-.13-.547-.13-.48 0-.812.143-1.002.427-.19.284-.283.642-.283 1.075v3.055H63.74v-5.542h1.093v.77c.08-.34.238-.594.467-.756.23-.163.516-.244.858-.244.423 0 .777.07 1.06.21.285.14.51.332.683.58.173.248.293.536.366.865.073.33.108.684.108 1.062v3.055h-1.12zM75.415 65.528c0-.297.025-.63.075-1s.144-.72.28-1.054c.138-.333.33-.613.58-.838.25-.225.574-.338.97-.338.18 0 .36.016.54.047.18.032.347.106.5.223l-.647 1.014-.23-.122c-.27 0-.475.072-.615.216-.14.144-.24.32-.298.527-.058.207-.09.432-.09.676v.647h.88v1.082h-.905v4.365H75.36v-4.393h-.676v-1.055h.73zM82.063 65.23c.136 0 .266.02.392.055.126.036.247.086.364.15l-.488 1.08c-.107-.027-.224-.04-.35-.04-.38 0-.687.078-.926.236-.24.16-.426.368-.56.63-.136.262-.228.554-.277.88-.05.323-.08.652-.09.986-.01.333-.004.656.013.966.02.31.028.58.028.804h-1.094v-5.542h1.108v.865c.008-.154.09-.296.236-.427.15-.13.323-.243.52-.338.2-.095.403-.17.61-.223.208-.054.378-.08.513-.08zM88.483 70.976h-1.176v-.554c-.162.19-.347.35-.554.487-.208.134-.442.202-.703.202-.315 0-.61-.032-.885-.095s-.517-.165-.723-.304c-.207-.14-.372-.33-.493-.568-.124-.24-.184-.534-.184-.885 0-.343.066-.642.196-.9.13-.256.308-.468.534-.634.225-.166.483-.293.77-.38.29-.084.59-.127.905-.127.272 0 .506.066.704.202.198.135.36.32.487.555 0-.2-.005-.4-.02-.602-.012-.203-.053-.388-.12-.554-.07-.166-.175-.3-.318-.405-.145-.104-.348-.156-.61-.156-.206 0-.413.033-.62.1-.208.07-.402.152-.58.25l-.42-.89c.253-.154.524-.28.817-.38.293-.1.588-.148.885-.148.658 0 1.174.2 1.55.595.372.397.56.92.56 1.567v3.622zM87.39 69.19c0-.18-.044-.33-.13-.452-.086-.12-.193-.22-.324-.298-.13-.076-.274-.13-.433-.162-.157-.032-.308-.048-.452-.048-.333 0-.623.074-.87.223-.248.15-.372.408-.372.777 0 .18.036.327.108.44.073.112.17.2.29.263.12.063.255.106.4.128.143.024.292.035.445.035.135 0 .282-.016.44-.047.158-.032.302-.08.433-.15.13-.066.24-.16.33-.276.09-.115.136-.26.136-.43zM94.604 70.976V67.92c0-.19-.015-.37-.047-.546-.03-.176-.087-.336-.17-.48-.08-.144-.19-.258-.33-.344-.14-.086-.323-.13-.547-.13-.478 0-.81.143-1 .427-.19.284-.284.642-.284 1.075v3.055H91.09v-5.542h1.095v.77c.08-.34.237-.594.467-.756s.515-.244.857-.244c.422 0 .776.07 1.06.21.284.14.51.332.682.58.172.248.293.536.366.865.072.33.107.684.107 1.062v3.055h-1.12zM100.105 72.706c.072.09.157.135.257.135.098 0 .18-.035.25-.107.067-.073.1-.158.1-.257 0-.144-.052-.24-.16-.284-.108-.045-.222-.045-.34 0v-1.095c-.386-.045-.735-.153-1.046-.324-.31-.17-.577-.387-.798-.65-.22-.26-.39-.56-.507-.897-.116-.34-.174-.697-.174-1.075 0-.413.06-.805.183-1.175.12-.37.298-.696.533-.98.234-.284.52-.51.858-.676.34-.167.727-.25 1.17-.25.36 0 .723.044 1.087.135.365.09.678.265.94.527l-.622.892c-.19-.207-.41-.333-.662-.38-.253-.044-.508-.067-.77-.067-.26 0-.49.06-.69.183s-.365.282-.5.48-.237.417-.304.655c-.068.24-.102.47-.102.696 0 .235.038.458.115.67.075.212.183.4.317.56.136.163.302.294.5.393.198.1.42.15.662.15.243 0 .49-.014.737-.042.246-.026.474-.12.682-.283l.595.892c-.127.126-.25.224-.373.297-.12.072-.245.128-.372.17-.126.04-.26.067-.406.08-.144.013-.306.02-.486.02v.622c.16.08.29.19.39.33.1.14.15.3.15.48 0 .27-.098.49-.29.663-.194.17-.422.257-.682.257-.155 0-.287-.03-.4-.088-.11-.06-.217-.142-.317-.25l.475-.406zM109.064 70.976h-1.176v-.554c-.162.19-.347.35-.553.487-.207.134-.44.202-.704.202-.314 0-.61-.032-.884-.095-.275-.063-.517-.165-.723-.304-.207-.14-.372-.33-.493-.568-.123-.24-.183-.534-.183-.885 0-.343.066-.642.196-.9.13-.256.308-.468.534-.634.224-.166.482-.293.77-.38.29-.084.59-.127.907-.127.27 0 .504.066.702.202.198.135.36.32.487.555 0-.2-.006-.4-.02-.602-.014-.203-.054-.388-.122-.554-.067-.166-.173-.3-.316-.405-.145-.104-.35-.156-.61-.156-.206 0-.414.033-.62.1-.208.07-.4.152-.58.25l-.42-.89c.252-.154.523-.28.818-.38.292-.1.59-.148.885-.148.658 0 1.173.2 1.547.595.374.397.56.92.56 1.567v3.622zm-1.095-1.785c0-.18-.043-.33-.13-.452-.084-.12-.19-.22-.323-.298-.13-.076-.273-.13-.432-.162-.157-.032-.308-.048-.453-.048-.334 0-.624.074-.87.223-.25.15-.373.408-.373.777 0 .18.035.327.106.44.073.112.17.2.29.263.123.063.255.106.4.128.143.024.292.035.445.035.137 0 .282-.016.44-.047.158-.032.303-.08.433-.15.13-.066.24-.16.332-.276.09-.115.134-.26.134-.43zM111.28 63.744c0-.207.07-.372.208-.494.14-.122.31-.182.507-.182s.366.06.5.176c.136.117.203.28.203.486 0 .207-.067.38-.203.513-.134.135-.306.203-.513.203s-.377-.065-.507-.196c-.13-.13-.196-.3-.196-.506zm.054 1.527h1.243v5.705h-1.23l-.013-5.704zM114.43 70.002l.877-.703c.153.215.344.387.574.513.23.126.48.19.75.19.235 0 .43-.052.582-.157.154-.103.23-.285.23-.547 0-.172-.06-.307-.183-.407-.122-.1-.273-.19-.453-.27-.18-.08-.374-.164-.582-.25-.208-.085-.402-.203-.58-.35-.182-.15-.332-.34-.453-.57-.123-.23-.183-.528-.183-.898 0-.217.044-.413.135-.588.09-.176.208-.324.357-.446.148-.12.317-.213.505-.277.19-.062.39-.094.596-.094.315 0 .633.04.953.12.32.082.588.254.803.515l-.514.77c-.136-.144-.296-.246-.486-.304-.19-.058-.383-.087-.58-.087-.182 0-.348.047-.5.142-.155.095-.23.24-.23.44 0 .188.064.335.195.438.13.104.29.196.48.277.19.08.4.162.628.243.23.08.438.19.628.324.19.135.35.308.48.52.13.213.196.49.196.832 0 .28-.057.526-.17.743-.11.216-.262.397-.453.54-.19.145-.404.256-.648.332-.242.076-.49.115-.743.115-.458 0-.878-.09-1.256-.27-.376-.18-.696-.46-.957-.838zM121.78 68.745c.1.442.29.766.575.974.283.206.646.31 1.086.31.245 0 .476-.054.698-.163.22-.108.416-.248.59-.42l.728.73c-.262.334-.572.573-.925.717-.356.144-.74.216-1.155.216-.415 0-.79-.073-1.12-.216-.335-.144-.618-.345-.854-.602-.233-.256-.412-.56-.538-.913-.126-.352-.19-.73-.19-1.136 0-.406.065-.786.197-1.143.13-.354.31-.666.546-.93.234-.267.52-.477.858-.63.338-.153.718-.23 1.14-.23.38 0 .72.074 1.02.223.303.148.56.347.778.595.215.248.383.536.5.865.117.33.175.67.175 1.02 0 .127-.004.248-.013.365-.01.117-.023.24-.04.364h-4.054zm3.135-1.08c-.072-.407-.233-.726-.486-.96-.254-.235-.596-.352-1.028-.352-.433 0-.78.117-1.04.35-.26.235-.446.555-.556.96h3.11zM5.24 84.63c-.938 0-1.616-.26-2.034-.78-.42-.52-.628-1.23-.628-2.134 0-.93.215-1.65.65-2.16.43-.51 1.125-.766 2.08-.766.116 0 .248.007.39.02.144.014.286.04.42.082.136.04.255.103.358.185.104.082.177.19.222.328v-5.022h1.19v10.11h-1.16v-.526c-.145.27-.358.448-.643.534-.284.085-.567.13-.845.13zm.04-4.76c-.576 0-.984.165-1.223.493-.238.33-.357.763-.357 1.304 0 .27.027.522.08.757.055.234.143.435.264.602.122.167.287.3.493.4.207.098.46.148.757.148.298 0 .54-.052.73-.155.19-.105.34-.244.458-.42.117-.176.2-.38.244-.61.044-.23.067-.474.067-.736 0-.513-.11-.94-.338-1.277-.224-.338-.616-.507-1.174-.507zM9.902 81.803V78.95h1.175v2.975c0 .207.02.412.055.615.036.203.098.38.187.534.09.154.215.277.376.372.16.094.363.142.604.142.25 0 .452-.07.605-.21.153-.14.266-.31.343-.513.075-.203.124-.42.147-.656.023-.235.034-.447.034-.637V78.95h1.093v5.543H13.39v-.5c-.055.153-.14.27-.25.35-.114.083-.242.145-.386.19-.145.046-.293.073-.446.082-.154.008-.293.014-.42.014-.406 0-.74-.085-1-.252-.26-.166-.464-.383-.607-.65-.144-.264-.244-.566-.297-.904-.055-.34-.08-.68-.08-1.02zM20.497 81.668c0-.414.06-.806.18-1.176.124-.37.3-.696.535-.98.235-.283.52-.51.86-.676.337-.166.726-.25 1.168-.25.36 0 .722.045 1.088.135.364.09.677.266.938.528l-.62.892c-.19-.207-.41-.333-.663-.378-.253-.045-.51-.068-.77-.068s-.49.06-.69.183c-.197.122-.365.282-.5.48s-.237.417-.305.656c-.067.24-.1.47-.1.696 0 .233.038.457.114.668.076.212.183.4.318.56.136.163.302.294.5.393.198.1.42.15.663.15.243 0 .49-.013.743-.04.25-.028.477-.122.675-.285l.595.892c-.153.144-.302.257-.445.338-.145.082-.296.14-.453.176-.158.037-.323.058-.494.062-.172.005-.356.008-.554.008-.407 0-.78-.082-1.123-.244-.34-.162-.638-.378-.885-.648-.246-.27-.44-.584-.574-.94-.133-.357-.2-.733-.2-1.13zM27.16 77.26c0-.206.07-.37.208-.492.14-.122.307-.183.505-.183.2 0 .366.058.502.176.134.118.2.28.2.488 0 .208-.066.378-.2.514-.136.135-.307.203-.513.203-.21 0-.377-.065-.507-.196-.132-.132-.196-.3-.196-.51zm.054 1.53h1.242v5.703h-1.23l-.012-5.704zM34.05 84.493v-3.055c0-.19-.016-.372-.047-.547-.032-.175-.088-.335-.17-.48-.08-.143-.19-.258-.33-.344-.14-.085-.324-.128-.548-.128-.477 0-.81.142-1 .426-.19.284-.285.642-.285 1.075v3.054h-1.134v-5.542h1.094v.77c.08-.34.236-.594.466-.756.23-.162.516-.243.858-.243.423 0 .777.07 1.062.21.283.14.51.333.68.58.173.248.295.536.367.865.072.33.107.682.107 1.06v3.056h-1.12zM38.022 82.263c.1.44.292.766.575.973.285.208.647.31 1.088.31.243 0 .475-.053.696-.16.222-.11.418-.25.59-.42l.73.73c-.262.333-.57.572-.926.716-.356.144-.74.217-1.156.217-.415 0-.788-.074-1.122-.218-.332-.144-.616-.345-.85-.602-.235-.257-.415-.56-.54-.912-.127-.352-.19-.73-.19-1.136 0-.406.065-.786.196-1.143.13-.357.312-.667.547-.933.233-.266.52-.475.856-.63.338-.152.72-.23 1.142-.23.378 0 .72.076 1.02.224.302.15.56.348.778.596.215.248.383.536.5.865.117.33.175.67.175 1.02 0 .127-.005.25-.012.366-.01.117-.023.24-.042.365h-4.054zm3.137-1.082c-.074-.404-.236-.724-.488-.96-.253-.233-.594-.35-1.027-.35-.433 0-.78.117-1.04.35-.262.235-.447.556-.555.96h3.11zm-1.096-5.176l.838.987-2.054 1.636-.677-.635 1.894-1.986zM47.51 79.654c.18-.315.417-.534.71-.655.292-.123.61-.183.953-.183.413 0 .764.067 1.046.202.284.135.51.322.682.56.17.24.295.52.372.846s.115.676.115 1.054v3.014h-1.15v-2.906c0-.162-.02-.338-.054-.527-.037-.188-.098-.363-.19-.526-.09-.162-.205-.298-.344-.405-.14-.11-.31-.163-.507-.163-.215 0-.396.052-.54.155-.144.104-.26.234-.35.392-.09.158-.157.33-.196.52-.043.19-.063.374-.063.554v2.906h-1.053v-2.906c0-.198-.016-.398-.048-.6-.03-.204-.09-.387-.175-.548-.085-.162-.207-.295-.363-.4-.158-.102-.358-.154-.602-.154-.243 0-.443.052-.6.155-.16.105-.28.238-.367.4-.085.162-.143.345-.175.547-.032.203-.047.403-.047.6v2.907h-1.15v-5.542h1.177v.785c.1-.27.24-.5.425-.69.184-.19.43-.284.737-.284.162 0 .338.01.526.027.192.017.368.06.535.12.168.065.313.155.44.27.125.118.21.276.255.474zM57.402 84.493h-1.174v-.554c-.164.188-.348.35-.555.486-.208.135-.44.203-.704.203-.316 0-.61-.033-.886-.096-.275-.063-.517-.165-.724-.304-.206-.14-.37-.33-.492-.567-.123-.24-.183-.534-.183-.886 0-.342.066-.642.196-.9.13-.256.31-.468.535-.635.226-.166.482-.292.77-.378.29-.086.59-.13.905-.13.27 0 .505.068.703.204.198.135.36.32.487.555 0-.198-.006-.4-.02-.602-.014-.202-.054-.386-.122-.553-.068-.167-.174-.302-.317-.406-.144-.103-.346-.155-.608-.155-.207 0-.414.034-.62.1-.208.068-.403.152-.583.25l-.42-.892c.252-.153.523-.28.818-.378.292-.1.588-.15.885-.15.658 0 1.173.2 1.547.595.375.397.56.92.56 1.568v3.625zm-1.093-1.785c0-.18-.044-.33-.13-.453-.086-.122-.193-.22-.325-.298-.13-.076-.274-.13-.433-.162-.157-.032-.307-.048-.453-.048-.335 0-.625.074-.872.223-.247.15-.372.408-.372.778 0 .18.036.326.108.44.073.112.17.2.29.263.123.064.255.107.4.13.143.022.292.033.445.033.135 0 .28-.016.44-.048.157-.03.3-.08.43-.148.132-.068.242-.16.333-.277.09-.116.136-.26.136-.432zM65.78 84.63c-.936 0-1.613-.26-2.033-.78-.42-.52-.628-1.23-.628-2.134 0-.93.216-1.65.648-2.16.434-.51 1.126-.766 2.08-.766.118 0 .248.007.393.02.144.014.284.04.42.082.135.04.254.103.358.185.104.082.177.19.223.328v-5.022h1.19v10.11h-1.16v-.526c-.146.27-.36.448-.643.534-.285.085-.567.13-.846.13zm.04-4.76c-.575 0-.985.165-1.22.493-.24.33-.36.763-.36 1.304 0 .27.027.522.082.757.055.234.14.435.264.602.12.167.285.3.49.4.208.098.46.148.76.148.295 0 .538-.052.728-.155.19-.105.34-.244.458-.42.117-.176.198-.38.245-.61.043-.23.068-.474.068-.736 0-.513-.115-.94-.34-1.277-.223-.338-.615-.507-1.174-.507zM70.2 75.166c0-.162.06-.313.182-.452.122-.14.264-.21.426-.21.108 0 .198.03.27.09.072.058.13.13.175.222.045.09.077.187.094.29.02.104.028.196.028.277 0 .126-.02.27-.062.433-.04.162-.098.318-.175.466-.077.15-.166.284-.27.406-.104.122-.22.21-.345.264.045-.108.072-.225.08-.35.01-.127.016-.25.016-.366 0-.207-.026-.35-.07-.433-.044-.08-.09-.146-.14-.196-.05-.05-.098-.1-.143-.15-.045-.05-.068-.147-.068-.29z" fill="#1A171B"/><path d="M77.714 84.493h-1.177v-.554c-.162.188-.346.35-.554.486-.207.135-.44.203-.703.203-.315 0-.61-.033-.885-.096-.274-.063-.516-.165-.723-.304-.208-.14-.372-.33-.493-.567-.123-.24-.183-.534-.183-.886 0-.342.065-.642.196-.9.13-.256.308-.468.534-.635.224-.166.48-.292.77-.378.287-.086.59-.13.905-.13.27 0 .504.068.702.204.198.135.36.32.487.555 0-.198-.006-.4-.02-.602-.013-.202-.054-.386-.122-.553-.067-.167-.173-.302-.317-.406-.143-.103-.346-.155-.607-.155-.207 0-.415.034-.622.1-.206.068-.4.152-.58.25l-.418-.892c.252-.153.523-.28.818-.378.292-.1.587-.15.885-.15.658 0 1.173.2 1.548.595.373.397.56.92.56 1.568v3.625zm-1.096-1.785c0-.18-.042-.33-.128-.453-.085-.122-.193-.22-.323-.298-.13-.076-.275-.13-.433-.162-.158-.032-.31-.048-.453-.048-.333 0-.623.074-.87.223-.25.15-.372.408-.372.778 0 .18.037.326.107.44.072.112.17.2.29.263.123.064.255.107.4.13.143.022.292.033.445.033.136 0 .28-.016.44-.048.157-.03.302-.08.432-.148.13-.068.24-.16.332-.277.09-.116.134-.26.134-.432zM83.59 84.493v-3.055c0-.19-.014-.372-.046-.547-.032-.175-.088-.335-.17-.48-.08-.143-.19-.258-.33-.344-.14-.085-.323-.128-.547-.128-.48 0-.81.142-1.002.426-.188.284-.282.642-.282 1.075v3.054h-1.136v-5.542h1.095v.77c.08-.34.236-.594.466-.756.228-.162.515-.243.858-.243.423 0 .777.07 1.06.21.284.14.51.333.683.58.17.248.292.536.364.865.073.33.108.682.108 1.06v3.056h-1.12zM86.673 77.26c0-.206.07-.37.21-.492.14-.122.307-.183.506-.183.197 0 .363.058.498.176.136.118.203.28.203.488 0 .208-.066.378-.202.514-.135.135-.306.203-.513.203-.207 0-.376-.065-.506-.196-.132-.132-.197-.3-.197-.51zm.053 1.53h1.244v5.703h-1.23l-.014-5.704zM94.146 79.654c.18-.315.417-.534.71-.655.29-.123.61-.183.952-.183.414 0 .763.067 1.048.202.283.135.51.322.682.56.17.24.295.52.372.846s.115.676.115 1.054v3.014h-1.148v-2.906c0-.162-.02-.338-.055-.527-.036-.188-.1-.363-.19-.526-.09-.162-.205-.298-.344-.405-.14-.11-.308-.163-.506-.163-.217 0-.397.052-.54.155-.144.104-.26.234-.352.392-.09.158-.156.33-.196.52-.04.19-.06.374-.06.554v2.906H93.58v-2.906c0-.198-.016-.398-.047-.6-.032-.204-.09-.387-.176-.548-.085-.162-.207-.295-.364-.4-.158-.102-.358-.154-.602-.154-.242 0-.442.052-.6.155-.16.105-.28.238-.365.4-.087.162-.144.345-.175.547-.032.203-.048.403-.048.6v2.907h-1.15v-5.542h1.177v.785c.098-.27.24-.5.425-.69.185-.19.43-.284.736-.284.163 0 .34.01.53.027.188.017.365.06.533.12.165.065.312.155.44.27.122.118.207.276.253.474zM104.038 84.493h-1.176v-.554c-.162.188-.347.35-.554.486-.207.135-.442.203-.704.203-.316 0-.61-.033-.885-.096-.276-.063-.516-.165-.723-.304-.207-.14-.372-.33-.494-.567-.12-.24-.18-.534-.18-.886 0-.342.063-.642.194-.9.13-.256.308-.468.533-.635.226-.166.483-.292.77-.378.29-.086.59-.13.906-.13.27 0 .505.068.703.204.198.135.36.32.487.555 0-.198-.008-.4-.02-.602-.014-.202-.055-.386-.124-.553-.066-.167-.173-.302-.317-.406-.144-.103-.347-.155-.608-.155-.208 0-.414.034-.622.1-.207.068-.402.152-.58.25l-.42-.892c.252-.153.524-.28.817-.378.293-.1.588-.15.886-.15.655 0 1.172.2 1.545.595.375.397.562.92.562 1.568v3.625zm-1.095-1.785c0-.18-.043-.33-.128-.453-.085-.122-.194-.22-.324-.298-.13-.076-.274-.13-.43-.162-.16-.032-.31-.048-.455-.048-.333 0-.623.074-.87.223-.248.15-.373.408-.373.778 0 .18.036.326.107.44.073.112.17.2.29.263.12.064.254.107.398.13.144.022.292.033.446.033.136 0 .282-.016.44-.048.157-.03.3-.08.432-.148.13-.068.24-.16.33-.277.092-.116.137-.26.137-.432zM108.01 79.032v1.216h-.77v4.244h-1.176v-4.244h-.73v-1.216h.77v-2.595l1.163-.42v3.016h.743zM109.673 77.26c0-.206.07-.37.21-.492.14-.122.308-.183.506-.183.196 0 .362.058.498.176.134.118.202.28.202.488 0 .208-.068.378-.202.514-.136.135-.307.203-.512.203-.207 0-.377-.065-.508-.196-.13-.132-.195-.3-.195-.51zm.054 1.53h1.243v5.703h-1.23l-.013-5.704zM119.105 81.64c0 .46-.08.875-.237 1.244-.158.37-.376.687-.655.953-.28.266-.61.47-.993.615-.383.144-.8.216-1.25.216-.45 0-.866-.07-1.243-.21-.38-.14-.703-.342-.973-.608-.27-.265-.482-.583-.636-.953-.153-.37-.23-.784-.23-1.244 0-.45.082-.86.244-1.23.162-.37.383-.687.663-.953.277-.265.61-.47.992-.615.383-.144.8-.217 1.25-.217.44 0 .852.073 1.23.217.38.144.703.347.972.608.27.26.482.577.635.946.154.37.23.78.23 1.23zm-3.094-1.973c-.27 0-.525.05-.763.15-.24.098-.446.233-.622.405-.175.172-.313.374-.41.608-.1.234-.15.487-.15.757 0 .595.158 1.088.48 1.48.32.392.794.588 1.424.588.612 0 1.1-.187 1.467-.56.363-.375.546-.87.546-1.482 0-.586-.183-1.056-.546-1.412-.366-.355-.84-.533-1.426-.533zM124.565 84.493v-3.055c0-.19-.016-.372-.047-.547-.032-.175-.088-.335-.17-.48-.08-.143-.19-.258-.33-.344-.14-.085-.323-.128-.548-.128-.478 0-.81.142-1 .426-.19.284-.285.642-.285 1.075v3.054h-1.134v-5.542h1.095v.77c.08-.34.238-.594.466-.756.23-.162.517-.243.86-.243.422 0 .776.07 1.06.21.284.14.51.333.682.58.172.248.292.536.366.865.072.33.108.682.108 1.06v3.056h-1.12z" fill="#C00318"/></svg>