<?xml version="1.0" encoding="UTF-8"?>
<svg id="Calque_8" data-name="Calque 8" xmlns="http://www.w3.org/2000/svg" viewBox="0 0 500 500">
  <defs>
    <style>
      .cls-1 {
        fill: #010c22;
      }

      .cls-2 {
        fill: #e7c402;
      }
    </style>
  </defs>
  <rect class="cls-1" x="0" y="0" width="500" height="500" rx="250" ry="250"/>
  <path class="cls-2" d="m429.65,139.22s-.09-.11-.14-.13c-.59-.27-1.2-.53-1.78-.81-.02,0-.03,0-.05-.02-.82-.37-1.65-.74-2.47-1.11-2.81-1.26-5.58-2.52-8.39-3.74l-.02-.02s-.02-.02-.04-.02c-.3-.15-.56-.34-.98-.31-.05.02-.08.04-.11.06-.03,0-.03.02-.05.03-.07.12-.14.24-.23.33-.28.4-.63.69-1.04.89-.02.02-.03.03-.04.03-.11.07-.22.11-.33.17-.57.23-1.13.45-1.68.67-3.82,1.47-7.67,3.22-11.52,5.06-3.7,1.77-7.39,3.74-11.07,5.88-6.78,3.96-13.4,8.49-19.8,13.86-3.06,2.55-6.01,5.23-8.86,8.12-.75.77-1.52,1.54-2.28,2.32-.52.54-1.06.88-1.63,1.07-.24.08-.51.15-.74.2-.94.2-1.81.24-2.65.18-1.76-.12-3.32-.56-4.78-1.2-9.8-4.18-19.6-8.36-29.41-12.53-7.4-3.15-14.81-6.3-22.22-9.46-3.78-1.6-7.54-3.22-11.34-4.8-.93-.41-1.83-.88-2.64-1.48-.74-.53-1.4-1.17-1.88-1.99-.21-.38-.4-.78-.44-1.29-.03-.53.07-1.09.55-1.71.24-.3.44-.62.68-.94,4.11-5.64,8.7-10.89,13.78-15.71,4.64-4.4,9.54-8.29,14.59-11.76,3.48-2.39,6.99-4.56,10.53-6.53,2.04-1.14,4.09-2.19,6.15-3.27,1.25-.64,2.46-1.04,3.58-1.08l.11-3.16v-.11c-.25-.11-.51-.21-.77-.31-.11-.06-.25-.08-.4-.03-.08,0-.18.03-.27.08-.21.09-.41.14-.62.27-.15.08-.29.15-.41.22-.67.3-1.25.3-1.76.15-.05,0-.06,0-.11-.02-.03-.02-.05-.02-.08-.03-.18-.07-.37-.14-.54-.21-1.62-.67-3.22-1.35-4.82-2.03-.15-.06-.28-.12-.42-.18-.07-.05-.15-.08-.2-.14-.04-.09-.08-.21-.05-.35,0-.06.14-.21.24-.25.45-.26.91-.5,1.42-.78-.06-.15-.08-.3-.15-.35-.41-.22-.86-.4-1.28-.59-.23-.11-.5-.1-.82.05-1.02.48-2.05.98-3.06,1.46-.42.2-.82.4-1.22.61-2.28,1.1-4.53,2.32-6.78,3.58-5.03,2.84-9.98,6.06-14.84,9.77-4.81,3.68-9.39,7.75-13.68,12.31-4.38,4.67-8.32,9.6-11.76,14.83-3.7,5.61-6.76,11.31-9.38,17.08-1.51,3.36-2.85,6.72-4.06,10.06-1.18,3.29-2.26,6.56-3.19,9.8-.65,2.23-1.3,4.47-1.82,6.67-.53,2.26-1.12,4.53-1.63,6.78-.41,1.83-.71,3.64-1.11,5.47-.6,2.77-1.07,5.5-1.52,8.22-.12.77-.24,1.53-.37,2.3-24.54-9.01-42.28-10.58-53.26-10.58-35.97,0-66.75,14.02-87.14,33.14-20.76,19.45-34.93,48.13-34.93,78.43,0,27.72,12.44,56.74,34.93,77.45,19,17.21,49.09,31.87,89.21,31.87,7.57,0,11.98-.71,20.17-2.42.11-.03.36-.16.4-.18.35-.15.71-.27,1.07-.4,2.79-1.04,5.61-2.2,8.42-3.39,3.08-1.3,6.15-2.71,9.22-4.22,3.44-1.69,6.88-3.53,10.29-5.54,5.59-3.27,11.09-6.92,16.46-11.14,6.22-4.86,12.08-10.3,17.51-16.38,3.1-3.45,5.96-7.04,8.68-10.74,4.3-5.89,8.02-11.94,11.34-18.12,2.13-3.93,4.07-7.89,5.86-11.86.96-2.11,1.88-4.24,2.78-6.36.08-.17.14-.33.21-.5,1.53-3.67,2.96-7.34,4.29-10.99,1.57-4.26,3.03-8.52,4.45-12.74,1.61-4.84,3.13-9.65,4.65-14.46,1.55-4.93,3.06-9.84,4.59-14.76.04-.12.08-.26.12-.39,1.81-5.85,3.71-11.73,5.73-17.62,2.08-6.08,4.31-12.16,6.82-18.28,2.34-5.69,4.93-11.38,7.85-17.07.34-.67.69-1.33,1.05-2.01.04-.08.08-.14.14-.24,2.07-3.89,4.33-7.75,6.79-11.57,4.41-6.87,9.41-13.38,15.07-19.51,2.18-2.36,4.44-4.64,6.78-6.78,1.48-1.4,2.99-2.75,4.53-4.06,5.25-4.48,10.68-8.42,16.23-11.96,6.63-4.19,13.28-7.7,19.96-10.75,3.06-1.4,6.15-2.73,9.2-3.88,1.31-.5,2.65-1.01,3.97-1.52.2-.08.4-.17.6-.27.04-.02.08-.08.11-.14.03-.05.06-.12.05-.14-.03-.05-.08-.08-.11-.11Zm-146.26,8.75c11.22,4.78,22.43,9.56,33.65,14.35,7.99,3.41,15.97,6.8,23.96,10.21,1.71.73,3.41,1.46,5.12,2.2,1.2.52,2.29,1.15,3.19,2.06.5.53.97,1.08,1.16,1.9.05.21.11.41.11.65.02.44-.14.92-.51,1.41-.21.3-.45.61-.68.91-2.29,3-4.4,6.07-6.39,9.2-2.87,4.51-5.45,9.06-7.79,13.68-2.73,5.42-5.13,10.83-7.3,16.25-1.09,2.71-2.12,5.41-3.1,8.1-.14.37-.27.75-.44,1.14-.29.66-.75,1.14-1.37,1.43-.58.27-1.12.42-1.63.45-.89.06-1.72,0-2.46-.21-.71-.22-1.37-.47-2.02-.74-5.95-2.62-11.9-5.22-17.86-7.84-12.15-5.33-24.29-10.68-36.44-16.02-1.36-.57-2.58-1.27-3.61-2.28-.59-.59-1.11-1.25-1.52-2.03-.43-.83-.63-1.79-.43-2.56.51-2.33.91-4.17,1.3-5.99.28-1.2.57-2.41.83-3.61,1.11-4.93,2.49-9.91,4.06-14.94,1.55-4.93,3.35-9.89,5.48-14.87,1.63-3.85,3.51-7.7,5.57-11.54.75-1.37,1.09-1.77,2.6-2.2.56-.15,1.06-.18,1.57-.18.86-.03,1.68.08,2.45.26.88.21,1.72.48,2.52.82Zm-67.56,192.13c-.12-.07-.24-.19-.3-.33-.04-.1,0-.27,0-.41.02-.06.05-.11.07-.17.53-.85,1.05-1.69,1.57-2.55.12-.18.43-.35.57-.34.13.02.27.03.36.08.97.45,1.91.92,2.84,1.39.14.08.24.2.33.3.05.05.05.17.06.26-.03.1-.03.21-.09.3-.53.86-1.07,1.69-1.6,2.54-.14.21-.54.4-.71.36-.13-.03-.25-.05-.36-.1-.91-.44-1.83-.88-2.74-1.33Zm1.85,3.9c-.62.88-1.24,1.75-1.87,2.61-.12.18-.43.3-.57.27-.12-.02-.25-.04-.37-.08-.91-.44-1.81-.88-2.71-1.33-.14-.07-.25-.18-.32-.32-.05-.1-.05-.3.03-.41.59-.88,1.2-1.76,1.81-2.62.06-.1.19-.16.3-.27.14-.02.32-.09.41-.05,1.09.5,2.16,1.04,3.25,1.56.03.02.04.08.07.11.09.09.09.36-.03.53Zm3.15-8.59c-.6-.27-1.2-.58-1.77-.88-.32-.17-.35-.51-.09-1.01.4-.75.82-1.51,1.23-2.26.24-.44.58-.62.91-.5.08.03.15.05.22.08.89.42,1.77.83,2.65,1.26.17.08.33.21.47.33.06.08.08.21.12.3-.03.14-.05.24-.09.36-.03.09-.09.2-.15.31-1.88,3.19-1.27,3.03-3.5,2.01Zm1.43-6.43c-.14-.07-.27-.16-.37-.27-.12-.17-.18-.37-.02-.67.41-.85.82-1.72,1.25-2.58.14-.27.48-.5.68-.44.11.03.24.05.34.1.95.44,1.89.89,2.84,1.36.14.06.26.14.36.27.06.09.09.21.14.3-.03.14-.03.24-.08.33-.37.92-.85,1.83-1.39,2.74-.11.17-.42.34-.57.32-.12-.03-.24-.05-.36-.08-.95-.45-1.9-.91-2.83-1.36Zm17.73-66.76c.12.02.24.02.36.07,1.15.53,2.29,1.03,3.44,1.56.21.09.38.24.56.4.15.11.21.31.19.57-.05.5-.14,1.01-.19,1.52-.02,0-.03,0-.03.02-.07.46-.11.91-.18,1.36-.05.28-.18.5-.34.59-.23.12-.4.11-.53.05-1.22-.55-2.43-1.1-3.64-1.66-.49-.22-.69-.69-.55-1.43.17-.88.27-1.74.41-2.6.03-.19.34-.47.5-.44Zm-.89,6.57c.15.04.32.08.46.14,1.04.47,2.07.94,3.1,1.41.22.1.41.22.59.36.21.17.35.41.28.79-.18,1.03-.39,2.06-.57,3.1-.05.18-.34.41-.51.34-1.32-.57-2.65-1.15-3.96-1.77-.37-.17-.53-.55-.43-1.1.05-.41.11-.81.14-1.01.12-.72.21-1.23.3-1.75.03-.26.38-.54.59-.49Zm-.96,6.56c.08.02.14.03.24.05.11.04.21.1.32.13.92.43,1.86.86,2.78,1.3.25.11.48.24.69.41.21.17.32.43.26.82-.05.36-.09.71-.14,1.06-.02,0-.04,0-.05.02-.14.63-.27,1.26-.43,1.89-.05.2-.33.42-.5.38-.12-.03-.26-.03-.35-.08-1.12-.5-2.22-1.01-3.33-1.52-.07-.03-.14-.07-.19-.11-.39-.21-.57-.59-.45-1.22.18-.88.34-1.76.53-2.65.05-.25.42-.53.63-.47Zm-.73,6.63c1.01.46,2,.91,2.98,1.37.22.11.4.25.59.39.16.11.21.34.18.58-.04.4-.11.81-.14,1.03-.18.81-.33,1.44-.49,2.08-.05.16-.39.43-.53.4-.12-.02-.24-.02-.36-.08-1.07-.48-2.13-.98-3.2-1.48-.14-.06-.27-.13-.4-.23-.25-.19-.37-.48-.29-.92.14-.72.23-1.44.41-2.17.08-.33.03-.74.5-1.03.34-.24.53-.04.74.05Zm1.95,7.94c.1.06.21.11.26.22.1.21.15.46.21.61-.24,1.05-.48,1.99-.71,2.94-.07.27-.42.54-.62.5-.15-.03-.32-.06-.47-.13-1-.46-1.98-.92-2.97-1.38-.14-.06-.27-.13-.38-.23-.27-.24-.42-.56-.27-1.07.23-.95.45-1.89.69-2.84.04-.12.28-.3.39-.29.09,0,.18-.02.25.02,1.21.56,2.42,1.1,3.63,1.65Zm-4.97,4.72c1.12.52,2.25,1.04,3.39,1.58.08.03.13.08.18.13.27.18.37.47.3.93-.26.95-.53,1.9-.79,2.84-.05.15-.4.41-.53.37-.17-.03-.33-.06-.47-.13-1-.46-1.98-.91-2.97-1.38-.14-.06-.26-.15-.4-.23-.23-.17-.33-.43-.24-.82.14-.62.29-1.25.43-1.88.1-.35.21-.72.32-1.09.05-.2.35-.4.52-.37.08.02.17.02.25.05Zm-1.43,6.36c.97.44,1.92.89,2.87,1.35.21.1.39.25.56.39.15.12.19.34.15.6-.05.26-.11.52-.19.79-.08.26-.21.53-.26.8-.51,2.04-.77,1.97-1.91,1.43-.75-.36-1.49-.7-2.23-1.06-.21-.09-.42-.21-.6-.34-.24-.15-.31-.44-.21-.82.07-.31.14-.63.24-.95.19-.69.41-1.39.63-2.08.19-.09.36-.2.48-.2.18,0,.33.05.47.11Zm1.24,7.66c.11.04.22.11.27.21.09.14.15.29.15.47-.05.59-.72,2.55-1.11,3.2-.04.07-.18.18-.26.2-.15.04-.32.06-.41.02-1.14-.53-2.26-1.08-3.39-1.62-.24-.12-.34-.41-.21-1.1.23-.66.56-1.62.88-2.58.02-.05.07-.11.11-.15.09-.07.21-.16.28-.19.14-.03.29-.04.38.02,1.12.5,2.22,1.02,3.3,1.54Zm-4.99,4.67c.88.4,1.75.82,2.63,1.24.18.08.34.18.48.31.2.19.27.47.11.88-.34.86-.67,1.72-1.02,2.58-.11.24-.47.48-.66.43-.15-.05-.3-.08-.45-.15-.92-.43-1.83-.85-2.75-1.3-.13-.07-.26-.15-.38-.23-.19-.15-.26-.4-.14-.73.3-.96.62-1.91,1.08-2.88.05-.1.17-.18.24-.28.09,0,.2-.06.27-.06h.02c.19.04.39.11.57.19Zm.34,7.23c.18.1.33.21.47.33.15.14.2.37.09.65-.39.92-.8,1.85-1.24,2.76-.05.12-.26.24-.39.35-.16,0-.31.02-.42-.02-1.06-.5-2.12-1.01-3.16-1.52-.14-.06-.25-.18-.31-.32-.06-.11-.1-.26-.03-.4.39-.97.82-1.94,1.22-2.92.09-.17.41-.37.56-.33.15.03.32.05.47.12.92.43,1.85.86,2.75,1.3Zm-2.72,13.43c.14-.28.29-.54.43-.82,3.06-5.57,5.54-11.13,7.69-16.71,1.83-4.76,3.36-9.47,4.71-14.16.85-2.98,1.64-5.94,2.36-8.89.77-3.2,1.51-6.4,2.11-9.58.12-.66.29-1.34.48-2.04.21-.79.91-1.52,1.68-1.77.26-.08.51-.14.74-.16.77-.1,1.46-.03,2.07.18.56.21,1.12.43,1.65.68,7.6,3.48,15.21,6.95,22.8,10.44,7.52,3.45,15.06,6.92,22.58,10.37.53.24,1.06.5,1.56.79.88.5,1.58,1.2,2.13,2.07.26.43.47.92.63,1.45.11.35.1.79.14,1.17-.14.5-.25.99-.43,1.47-1.46,4.04-3.02,8.1-4.73,12.15-1.1,2.62-2.26,5.21-3.48,7.81-2.74,5.87-5.87,11.69-9.47,17.43-2.23,3.56-4.61,7.05-7.23,10.46-.11.15-.23.3-.34.46-.8,1.1-1.73,1.65-2.74,1.88-1.04.27-2.01.3-2.83.05-.59-.16-1.16-.38-1.68-.63-5.72-2.74-11.41-5.51-17.12-8.26-6.76-3.26-13.52-6.51-20.29-9.79-.5-.23-.99-.47-1.47-.71-.81-.43-1.46-1.01-1.91-1.8-.26-.45-.43-.95-.48-1.56-.08-.62.08-1.28.43-1.99Zm72.35-36.42c-.47-.16-.89-.34-1.33-.53-11.46-5.25-22.91-10.49-34.37-15.74-4.03-1.84-8.06-3.68-12.11-5.51-.96-.43-1.84-.99-2.58-1.7-.68-.63-1.24-1.38-1.65-2.26-.37-.82-.47-1.79-.3-2.96.79-5.1,1.56-10.19,2.27-15.28.58-4.07,1.07-8.11,1.66-12.56.94-6.75,1.89-13.91,2.91-21.07.3-2.18.69-4.4,1.04-6.61.05-.21.08-.41.15-.62.14-.51.69-1.13,1.17-1.37.43-.22.82-.34,1.2-.37.58-.06,1.11-.06,1.62.03.96.13,1.83.45,2.65.82,5.18,2.29,10.36,4.58,15.55,6.86,12.82,5.65,25.65,11.3,38.47,16.93,1.35.59,2.54,1.36,3.51,2.4.45.51.83,1.11,1.13,1.78.37.8.3,1.78-.06,2.96-1.01,3.26-2.02,6.52-3,9.78-.89,2.98-1.73,5.95-2.6,8.93-1.33,4.64-2.63,9.26-3.99,13.89-1.24,4.37-2.52,8.73-3.82,13.09-.63,2.13-1.32,4.28-1.98,6.4-.12.37-.24.75-.4,1.14-.27.66-.77,1.14-1.39,1.42-.63.3-1.21.45-1.76.45-.73.02-1.4-.08-2.01-.3Zm14.5-201.88c1.01-.55,2.05-1.11,3.06-1.64.31-.16.6-.21.86-.16.33.06.68.09.96.21,1.85.74,3.66,1.49,5.49,2.26.16.09.28.24.42.37.08.08-.06.35-.18.41-1.07.56-2.15,1.1-3.23,1.66-.54.3-.99.34-1.4.25-.21-.05-.4-.11-.58-.19-1.76-.72-3.5-1.44-5.25-2.19-.19-.07-.36-.17-.5-.29-.08-.07-.08-.23-.12-.35.18-.14.32-.3.47-.36Zm-7.02,4.03c.96-.59,1.92-1.17,2.88-1.75.09-.08.21-.11.41-.21.14-.02.4-.08.6-.05.33.03.66.12.95.23,1.75.72,3.48,1.45,5.24,2.17.18.08.33.19.48.3.17.12.03.5-.24.66-.96.56-1.94,1.14-2.9,1.71-.35.21-.71.33-1,.26-.33-.08-.66-.14-.95-.24-1.75-.72-3.49-1.45-5.24-2.19-.17-.07-.3-.21-.46-.33-.11-.1.03-.46.21-.56Zm-6.27,4.09c.85-.57,1.72-1.16,2.57-1.75.37-.26.7-.36,1.01-.32.26.05.51.08.74.17,1.85.77,3.71,1.54,5.56,2.33.11.05.2.12.27.21.05.05.06.15.08.23-.05.11-.08.24-.16.3-.12.12-.29.24-.43.33-.6.41-1.24.77-1.81,1.23-.92.74-1.59.74-2.23.53-.15-.06-.3-.12-.44-.18-1.57-.66-3.13-1.31-4.7-1.97-.25-.11-.47-.26-.69-.41-.16-.11-.03-.5.22-.69Zm-5.89,4.38c.83-.66,1.66-1.3,2.49-1.94.26-.2.53-.27.74-.24.34.04.69.08.97.18,1.78.75,3.56,1.5,5.33,2.26.14.06.24.16.36.27.04.05.03.16.04.24-.07.11-.12.24-.2.3-.88.69-1.77,1.38-2.66,2.04-.24.2-.51.27-.72.24-.33-.04-.68-.1-.97-.21-1.67-.7-3.33-1.4-4.99-2.11-.22-.1-.4-.24-.58-.37-.18-.12-.08-.44.19-.66Zm-5.5,4.65c.8-.72,1.6-1.45,2.42-2.13.16-.14.43-.24.58-.22.35.02.7.05.98.18,1.75.72,3.49,1.46,5.24,2.19.14.07.26.17.37.27.06.05.06.15.09.23-.05.11-.06.21-.12.3-.11.15-.25.29-.39.41-.43.37-.86.74-1.29,1.11-1.2,1-1.27,1.17-2.31.75-1.78-.69-3.51-1.44-5.24-2.19-.18-.08-.32-.22-.46-.34-.11-.09-.04-.43.12-.56Zm-5,4.77c.73-.8,1.49-1.58,2.31-2.26.08-.08.19-.11.32-.18.12,0,.27-.04.4-.02.31.07.65.14.94.26,1.56.65,3.13,1.31,4.7,1.97.22.1.42.22.6.34.22.15.17.53-.11.8-.69.66-1.39,1.32-2.07,1.98-.3.28-.62.4-.88.36-.29-.05-.57-.11-.83-.21-1.65-.69-3.28-1.38-4.91-2.08-.22-.1-.39-.24-.56-.38-.11-.1-.04-.41.11-.58Zm-4.54,4.83c.65-.71,1.3-1.43,1.94-2.13.24-.24.52-.34.74-.33.26.02.51.07.72.14,1.75.73,3.48,1.48,5.21,2.23.18.07.28.23.4.37.11.1.05.29-.08.44-.68.77-1.36,1.52-2.05,2.28-.11.13-.29.19-.47.31-.17,0-.37.05-.52.02-.29-.06-.56-.14-.82-.26-1.48-.63-2.97-1.27-4.45-1.91-.27-.13-.52-.3-.77-.48-.17-.11-.09-.43.12-.69Zm-4.34,5.39s.05-.11.08-.14c.59-.76,1.19-1.52,1.78-2.24.11-.14.29-.24.43-.34.17-.03.32-.09.44-.08.28.06.56.12.82.23,1.52.63,3.05,1.27,4.57,1.93.27.12.51.32.75.5.09.08.05.39-.08.56-.59.75-1.18,1.49-1.78,2.26-.21.26-.62.46-.86.41-.25-.05-.48-.11-.71-.19-1.59-.67-3.19-1.35-4.78-2.02-.29-.12-.58-.26-.69-.58-.03-.06.02-.19.03-.29Zm-3.76,5.12c.59-.82,1.16-1.65,1.75-2.46.12-.18.39-.3.56-.27.25.02.53.05.72.14,1.68.7,3.35,1.4,4.99,2.12.21.09.37.27.52.44.05.05.03.16.05.24-.05.11-.05.22-.12.31-.55.77-1.1,1.54-1.66,2.29-.17.24-.51.41-.71.39-.25-.03-.51-.05-.74-.15-1.63-.67-3.25-1.36-4.88-2.06-.2-.1-.37-.26-.52-.44-.1-.11-.11-.32.04-.56Zm-3.19,4.93c.39-.63.79-1.26,1.2-1.89.15-.24.53-.46.7-.42.24.05.5.1.72.18,1.56.66,3.12,1.32,4.67,1.99.24.11.46.27.67.44.14.11.11.44-.05.69-.5.8-1.01,1.59-1.54,2.36-.08.14-.27.24-.4.34-.17.02-.32.06-.44.02-.3-.08-.62-.18-.91-.3-1.31-.55-2.62-1.1-3.91-1.66-.25-.11-.51-.21-.74-.36-.53-.34-.45-.6.03-1.39Zm-3.2,5.6c.34-.63.7-1.28,1.06-1.93.12-.23.51-.47.7-.45.21.03.44.04.63.11,1.59.67,3.19,1.34,4.76,2.03.25.11.44.32.65.48.05.06.05.17.06.25-.03.11-.03.21-.09.32-.48.85-.95,1.7-1.45,2.55-.1.18-.41.35-.56.33-.25-.04-.51-.05-.73-.15-1.52-.63-3.03-1.29-4.56-1.94-.14-.07-.29-.14-.41-.22-.44-.28-.5-.56-.05-1.39Zm-2.9,5.71c.29-.59.56-1.17.86-1.77.11-.22.29-.4.42-.59.41-.15.69-.08.94.03,1.62.66,3.21,1.36,4.79,2.04.33.14.63.31.66.81-.37.87-.82,1.78-1.33,2.69-.16.28-.47.5-.69.47-.21-.02-.43-.05-.61-.12-1.52-.65-3.05-1.3-4.56-1.95-.11-.05-.22-.09-.32-.15-.53-.33-.56-.62-.16-1.46Zm-2.71,6.14c.35-.76.64-1.52.97-2.27.15-.34.51-.59.79-.52.27.07.56.15.8.26,1.33.56,2.68,1.13,4,1.72.31.14.6.33.88.53.09.05.11.19.17.28-.03.13-.03.24-.08.34-.38.87-.75,1.73-1.14,2.6-.11.25-.48.51-.68.47-.24-.05-.49-.09-.69-.18-1.46-.62-2.9-1.24-4.33-1.86-.22-.08-.43-.21-.59-.34-.24-.21-.34-.5-.09-1.02Zm-2.29,5.87c.3-.75.57-1.51.86-2.27.09-.26.46-.53.66-.5.23.06.49.11.69.2,1.46.62,2.9,1.24,4.35,1.87.18.08.35.18.5.29.29.21.37.55.11,1.12-.35.76-.59,1.52-.89,2.27-.06.15-.23.3-.32.44-.13.03-.24.08-.31.06-.25-.03-.5-.08-.72-.16-1.41-.61-2.81-1.23-4.22-1.85-.18-.08-.36-.18-.51-.27-.35-.21-.48-.59-.21-1.2Zm-2.11,6.24c.2-.72.49-1.63.88-2.55.08-.22.37-.44.52-.41.21.03.43.05.61.12,1.49.63,2.97,1.28,4.45,1.92.21.1.4.24.56.39.18.17.24.4.11.75-.29.86-.59,1.72-.88,2.58-.11.29-.44.55-.63.51-.25-.05-.5-.1-.7-.19-1.39-.59-2.77-1.18-4.14-1.78-.2-.1-.4-.22-.59-.36-.24-.15-.32-.42-.2-.99Zm-1.92,6.31c.27-.91.56-1.8.84-2.71.07-.2.37-.43.53-.41.16,0,.36,0,.5.07,1.52.63,3.03,1.29,4.53,1.94.23.1.4.24.56.4.14.14.19.35.11.63-.26.91-.54,1.8-.81,2.71-.11.36-.46.59-.75.51-.2-.05-.4-.1-.58-.17-1.33-.58-2.67-1.16-3.99-1.75-.27-.12-.53-.3-.75-.5-.19-.15-.24-.41-.17-.74Zm-1.58,6.08c.19-.69.33-1.36.53-2.04.05-.22.12-.43.24-.65.07-.12.28-.27.4-.3.17-.02.35,0,.49.08,1.49.63,2.97,1.27,4.45,1.92.18.08.34.18.48.3.22.18.34.42.22.83-.25.9-.48,1.81-.72,2.71-.08.26-.44.53-.65.5-.17-.05-.33-.06-.47-.13-1.42-.6-2.84-1.21-4.24-1.83-.21-.09-.41-.21-.58-.38-.23-.22-.3-.54-.16-1.01Zm-1.51,6.56c.22-.94.43-1.88.66-2.82.05-.18.37-.44.52-.43.17.02.35.02.5.08,1.45.6,2.87,1.24,4.32,1.85.04.02.07.03.11.06.63.34.69.52.53,1.55-.21.78-.4,1.58-.62,2.36-.08.26-.4.5-.63.44-.14-.04-.31-.08-.45-.15-1.37-.58-2.75-1.17-4.11-1.77-.21-.11-.4-.23-.57-.37-.23-.17-.34-.43-.25-.81Zm-1.27,6.36c.08-.36.14-.71.21-1.07h-.02c.1-.51.19-1.03.3-1.56.1-.43.47-.7.81-.61.11.05.23.08.34.12,1.33.59,2.65,1.16,3.99,1.74.14.07.27.14.41.21.4.22.58.59.44,1.23-.2.89-.3,1.74-.61,2.66-.05.18-.37.42-.52.4-.17-.03-.34-.03-.5-.1-1.36-.59-2.72-1.18-4.09-1.79-.15-.07-.27-.13-.41-.24-.3-.18-.45-.5-.37-1Zm-1.09,6.11c.2-.89.21-1.72.49-2.61.24-.21.44-.32.62-.27.2.05.39.11.57.19,1.2.52,2.37,1.03,3.55,1.56.3.13.57.28.82.46.26.18.36.5.27.93-.18.94-.38,1.88-.58,2.81-.05.2-.33.44-.5.41-.2-.02-.41-.05-.59-.12-1.27-.55-2.53-1.1-3.78-1.66-.11-.05-.22-.09-.31-.15-.55-.24-.76-.72-.56-1.54Zm-1.09,6.68c.18-.93.22-1.81.44-2.72.23-.26.44-.37.62-.34.12.02.24.05.35.08,1.34.59,2.68,1.17,4,1.76.18.08.34.18.5.3.26.18.39.49.32.92-.17.98-.36,1.96-.53,2.93-.03.17-.37.43-.53.39-.19-.04-.4-.08-.57-.16-1.24-.54-2.46-1.07-3.69-1.62-.14-.06-.27-.14-.41-.2-.44-.24-.63-.65-.5-1.34Zm-.91,6.5c.08-.36.11-.71.18-1.31.05-.25.14-.75.22-1.28.02-.12.16-.26.28-.35.09-.05.15-.08.21-.06.19.05.4.08.59.17,1.23.52,2.43,1.05,3.66,1.6.18.07.36.17.51.26.37.25.54.62.43,1.24-.17.88-.27,1.74-.43,2.6-.04.28-.39.57-.59.53-.08-.02-.18-.02-.25-.05-.15-.05-.3-.11-.44-.18-1.15-.49-2.29-1.01-3.45-1.52-.08-.04-.16-.08-.25-.12-.02,0-.04,0-.06-.02-.54-.24-.79-.69-.62-1.5Zm-.91,7.07c.14-1.02.27-2.02.41-3.03.02-.21.33-.47.48-.43.23.06.48.13.69.21.05.02.09.02.11.04,1.09.47,2.17.95,3.23,1.43.18.08.37.16.53.26.14.08.24.18.36.29.14.14.22.31.19.57-.07.56-.14,1.12-.21,1.66h0c-.05.37-.08.71-.14,1.07-.05.24-.02.51-.37.73-.28.21-.47.1-.65,0-1.01-.43-2.03-.89-3.05-1.34-.27-.12-.54-.24-.82-.37-.18-.08-.34-.18-.49-.3-.22-.17-.33-.43-.28-.8Zm-.8,6.39c.15-.96.27-1.92.43-2.87.02-.11.27-.34.37-.34.08,0,.18-.03.26,0,.16.05.3.1.45.17.29.14.59.26.88.4.86.37,1.69.75,2.55,1.13.14.07.27.14.43.2.47.2.63.63.51,1.3-.07.42-.11.82-.17,1.21h.02c-.09.51-.17,1.02-.26,1.52-.04.21-.31.45-.47.43-.21-.05-.41-.09-.59-.15-.68-.3-1.35-.6-2.03-.91-.5-.21-1-.44-1.51-.67-.14-.05-.27-.12-.41-.21-.37-.23-.57-.59-.47-1.21Zm-.72,6.07c.26-2.29.3-2.48.57-2.55.84-.22,1.25.3,1.83.53.24.09.48.18.71.28.57.24,1.12.51,1.66.75.25.13.49.25.71.41.21.17.33.43.27.8-.08.51-.12,1.01-.2,1.52h-.02c-.05.51-.12,1-.18,1.51-.03.21-.34.47-.48.44-.2-.05-.42-.08-.59-.17-.39-.17-.79-.34-1.17-.52-.4-.16-.79-.34-1.19-.53-.37-.16-.72-.31-1.08-.5-.18-.08-.36-.16-.51-.27-.3-.19-.45-.52-.43-.98.02-.24.06-.5.09-.74Zm-.8,7.49c.05-.51.12-1.01.19-1.52-.02.02-.04.02-.07.03.05-.4.11-.81.17-1.21.02-.2.05-.42.26-.6.28-.26.48-.17.66-.09.14.06.29.12.43.19.75.33,1.52.67,2.28,1.01.25.1.49.21.73.32.1.05.21.11.31.15.66.23.87.8.72,1.7-.15.81-.24,1.61-.37,2.42-.04.27-.37.51-.6.45-.05-.02-.08-.02-.12-.03-.03,0-.07-.02-.11-.03-.2-.08-.37-.16-.57-.24-1.1-.5-2.2-.99-3.28-1.48-.11-.05-.22-.1-.3-.18-.22-.21-.39-.47-.33-.89Zm-.79,6.61c.14-1.04.18-2.07.44-3.2.16-.07.33-.19.45-.19.17,0,.32.05.47.12,1.12.5,2.24.99,3.34,1.49.03.02.06.02.09.04.21.11.4.24.6.36.21.16.34.43.3.78-.12,1.01-.25,2.01-.39,3.03-.03.24-.4.53-.61.47-.08,0-.16-.02-.24-.05-.11-.02-.22-.08-.33-.12-1.03-.47-2.07-.93-3.1-1.42-.24-.11-.5-.24-.7-.39-.25-.2-.39-.49-.33-.91Zm-.79,6.5c.08-.46.12-.91.2-1.37-.02.02-.03.02-.03.02.05-.46.11-.91.18-1.36.03-.15.08-.34.26-.43.15-.07.3-.11.43-.1.17.03.3.1.46.15,1.03.47,2.07.94,3.1,1.42.23.09.43.19.62.32.11.06.21.16.27.27.12.18.18.43.14.72-.03.31-.08.65-.14.96-.08.65-.18,1.3-.27,1.94-.04.27-.39.54-.6.47-.17-.04-.31-.07-.47-.14-1.08-.49-2.14-.96-3.22-1.46-.14-.06-.27-.14-.41-.21-.4-.22-.58-.61-.51-1.2Zm-.82,7.07s.02-.11.02-.14c.09-.74.14-1.5.27-2.26.05-.37-.08-.79.43-1.17.4-.29.59,0,.83.11,1.04.45,2.08.92,3.11,1.4.22.1.41.21.59.36.26.19.36.51.3.92-.05.45-.11.91-.15,1.24-.12.65-.21,1.15-.3,1.68-.05.18-.35.46-.48.43-.17-.03-.35-.05-.49-.11-.98-.44-1.94-.88-2.92-1.33-.13-.06-.27-.13-.39-.18-.18-.08-.34-.18-.5-.28-.19-.14-.32-.35-.32-.63v-.02Zm-107.47,40.78c0-14.99,5.89-31.56,20.05-43.67,11.07-9.24,24.21-14.02,41.5-14.02,8.58,0,27.29,1.6,44.4,15.6-.45,3.64-.95,7.29-1.49,10.96-.29,2-.6,4-.94,6.02-.39,2.49-.83,5.01-1.33,7.53-.39,1.97-.74,3.94-1.17,5.92-.51,2.35-1.09,4.71-1.65,7.08-.79,3.3-1.69,6.61-2.72,9.96-.47,1.57-.96,3.14-1.49,4.72-1.8,5.32-3.91,10.67-6.47,16.04-2.13,4.47-4.54,8.87-7.32,13.21-.18.27-.35.54-.54.8-2.49,3.84-5.21,7.49-8.15,10.95-.08.11-.18.21-.27.3-2.17,2.55-4.47,4.99-6.88,7.35-16.48-1.03-37.47-9.27-46.84-17.31-12.11-10.51-18.68-26.78-18.68-41.44Zm42.52,80.93c-.06.03-.1.08-.15.11-1.07.56-2.14,1.1-3.21,1.65-.66.32-1.18.33-1.6.08-.7-.4-1.51-.66-2.1-1.19-.08-.08.02-.34.15-.42.04-.04.09-.08.14-.11,1.12-.6,2.25-1.21,3.37-1.8.43-.24.81-.26,1.11-.15.35.15.69.34,1.04.53.48.24.95.5,1.41.76.14.07.02.43-.16.54Zm6.87-3.91c-1.16.8-2.33,1.4-3.45,2.04-.47.15-.81.12-1.08-.02-.73-.38-1.44-.75-2.16-1.14-.07-.02-.11-.11-.15-.16-.07-.09.03-.35.15-.43.04-.05.1-.08.14-.13,1.02-.6,2.04-1.22,3.06-1.83.42-.24.83-.35,1.12-.21.88.43,1.72.89,2.57,1.36.15.08.04.37-.19.52Zm6.59-4.34c-.08.11-.15.21-.25.29-.95.65-1.89,1.28-2.86,1.91-.43.3-.82.36-1.11.22-.88-.42-1.72-.89-2.57-1.34-.2-.1-.08-.43.24-.65.95-.65,1.9-1.28,2.85-1.94.4-.27.69-.27.98-.24.1.02.17.05.24.08.79.4,1.59.81,2.36,1.23.1.05.14.18.19.26-.04.08-.04.14-.08.18Zm5.62-3.97c-.84.65-1.66,1.27-2.5,1.89-.05.05-.1.08-.15.11-.32.19-.61.27-.85.2-.14-.05-.3-.11-.43-.18-.66-.33-1.33-.65-1.98-.99-.14-.07-.25-.15-.37-.24-.12-.08-.06-.39.09-.54.06-.04.11-.09.14-.12.88-.69,1.76-1.39,2.64-2.07.3-.23.6-.28.85-.23.12.03.23.08.34.11.74.37,1.46.72,2.19,1.09.12.07.25.18.35.29.04.05,0,.18.02.28-.1.13-.21.3-.33.4Zm5.68-4.71c-.86.74-1.71,1.48-2.55,2.21-.3.24-.65.34-.88.26-1.03-.41-2.02-.88-2.9-1.49-.11-.08-.05-.4.14-.56.89-.79,1.81-1.57,2.7-2.36.05-.05.11-.05.17-.08.09-.03.18-.08.28-.08.12.02.26.02.36.08.9.45,1.8.91,2.71,1.37.03.02.04.05.07.08.11.09.07.41-.09.56Zm5.04-4.69c-.77.75-1.54,1.51-2.33,2.25-.18.18-.4.28-.6.3-.05,0-.08,0-.12-.02-.21-.03-.4-.1-.57-.18-.74-.36-1.46-.72-2.19-1.1-.14-.08-.27-.15-.35-.29-.04-.09.02-.27.08-.43.03-.1.14-.22.21-.3.25-.25.51-.5.75-.75.48-.47.95-.93,1.43-1.39.26-.25.51-.3.71-.26.13.02.25.05.37.11.82.4,1.66.82,2.5,1.24.09.05.18.14.23.24.05.05.03.17.05.26-.06.1-.1.22-.17.3Zm4.57-4.79c-.69.75-1.38,1.5-2.07,2.25-.25.24-.5.3-.72.24-.14-.03-.3-.08-.43-.15-.81-.4-1.61-.8-2.4-1.2-.1-.05-.18-.12-.27-.19-.11-.08-.09-.4.03-.55.77-.85,1.52-1.71,2.29-2.55.09-.08.21-.11.34-.19.11,0,.28-.02.37.02,1,.49,2.02.98,3,1.51.23.11.15.5-.13.81Zm2.06-2.57c-.13.02-.22.06-.31.06-.12-.02-.27-.03-.36-.08-.88-.43-1.76-.86-2.63-1.3-.11-.05-.18-.14-.27-.22-.09-.08-.08-.38.05-.55.66-.85,1.33-1.7,2.02-2.55.16-.18.4-.27.59-.26.12.02.24.03.35.09.92.43,1.83.88,2.73,1.34.14.07.23.21.31.34.02.05-.02.18-.05.28,0,.05-.04.11-.08.17-.64.79-1.27,1.59-1.94,2.38-.11.13-.29.22-.41.3Zm8.71,51.94c-.02.08-.15.21-.25.26-.14.1-.3.18-.45.24-1.11.46-2.23.89-3.34,1.33-.47.2-.89.27-1.27.24-.21-.02-.4-.07-.59-.18-.66-.38-1.37-.74-2.03-1.11-.05-.03-.07-.17-.03-.25.04-.08.15-.21.24-.26.21-.11.41-.2.6-.29.37-.14.73-.27,1.08-.4.2-.08.4-.15.59-.23v-.05c.6-.24,1.2-.46,1.83-.71.53-.21.98-.21,1.33-.04.75.39,1.49.79,2.24,1.21.05.02.08.15.04.23Zm7.77-3.16c-1.14.52-2.26,1.03-3.39,1.55-.4.19-.74.3-1.08.31-.3.02-.57-.03-.82-.17-.68-.39-1.38-.73-2.05-1.12-.08-.04-.11-.21-.08-.34.06-.17.25-.29.4-.36.66-.3,1.33-.59,2-.88v.02c.5-.24,1.03-.51,1.54-.74.53-.25,1.01-.32,1.37-.13.79.4,1.58.82,2.36,1.26.07.02.05.14.08.21.02.1-.18.3-.36.39Zm7.69-3.78c-.63.33-1.23.66-1.85.98-.51.27-1.01.53-1.54.8-.54.28-1,.34-1.39.2-.08-.02-.15-.05-.22-.09-.15-.06-.29-.14-.43-.21-.62-.31-1.22-.64-1.83-.98-.05-.03-.05-.15-.06-.24-.02-.09.15-.3.32-.4,1.19-.62,2.36-1.22,3.54-1.85.04-.02.1-.04.29-.11.11-.02.34-.05.55-.02.21.02.4.09.58.19.63.33,1.27.66,1.88,1.01.12.06.23.12.36.2.14.06,0,.4-.21.52Zm7.25-4.04c-.07.09-.19.17-.29.21-.86.51-1.71,1.02-2.58,1.52-.3.16-.62.3-.98.48-.22,0-.54.07-.73-.03-.12-.05-.26-.12-.38-.18-.75-.37-1.49-.75-2.22-1.12-.09-.05-.17-.18-.05-.36.05-.09.14-.21.23-.26.96-.57,1.93-1.15,2.88-1.72.15-.08.3-.15.46-.24.43-.21.81-.27,1.1-.14.77.4,1.56.79,2.31,1.18.1.06.18.09.27.15.07.03.11.11.11.21,0,.08-.06.21-.13.29Zm6.66-4.15c-.83.71-1.71,1.16-2.55,1.72-.34.22-.72.42-1.06.56-.39.16-.68.09-.92-.03-.04-.03-.08-.05-.13-.07-.66-.33-1.3-.66-1.96-.99-.17-.08-.3-.22-.46-.33-.06-.05,0-.35.1-.43.05-.05.1-.09.14-.14,1.01-.66,2.03-1.33,3.04-1.99.37-.24.71-.3,1-.23.07.03.15.05.22.09.84.41,1.68.83,2.51,1.26.06.05.11.1.15.15.09.07.05.31-.08.42Zm6.2-4.32c-.07.1-.18.2-.27.26-.85.62-1.69,1.24-2.54,1.83-.43.3-.85.47-1.15.33-.02-.02-.06-.02-.09-.05-.96-.46-1.88-.95-2.82-1.43-.12-.07-.02-.41.17-.56.99-.72,1.97-1.46,2.97-2.18.3-.22.6-.27.85-.19.08.02.15.04.24.08.86.43,1.74.87,2.6,1.31.08.06.12.15.18.23,0,.02,0,.02,0,.03-.05.14-.08.27-.14.34Zm5.7-4.38c-.33.25-.64.51-.97.76-.02.02-.02.02-.03.02-.59.47-1.17.94-1.76,1.4-.18.14-.34.21-.5.21-.08.02-.14.02-.22,0-.17-.03-.33-.08-.47-.14-.84-.41-1.66-.83-2.51-1.25-.06-.05-.11-.1-.16-.15-.11-.08-.04-.43.11-.55.86-.73,1.72-1.45,2.59-2.16.14-.11.3-.18.46-.27.15-.02.29-.07.43-.08.09,0,.19,0,.24.04.98.49,1.95.98,2.91,1.47.18.09.1.48-.14.68Zm5.34-4.62c-.79.71-1.59,1.42-2.39,2.13-.32.26-.6.3-.86.26-.13-.02-.25-.05-.35-.11-.86-.43-1.73-.86-2.61-1.3-.03-.02-.06-.04-.1-.05-.21-.15-.16-.51.12-.79.84-.77,1.68-1.52,2.53-2.28.21-.19.4-.22.56-.19.18.03.33.07.47.14.88.4,1.75.82,2.62,1.27.13.06.21.21.3.33.02.02.02.08.02.15-.1.14-.18.32-.32.44Zm5.34-5.31c-.05.11-.09.22-.15.32-.79.85-1.6,1.65-2.46,2.39-.2.18-.4.23-.59.21-.13-.02-.27-.02-.37-.06-.95-.46-1.9-.92-2.84-1.39-.06-.05-.11-.11-.16-.15-.12-.1-.1-.39.07-.56.74-.78,1.49-1.56,2.26-2.33.28-.28.6-.39.88-.36.08.02.16.03.24.08.98.47,1.97.94,2.93,1.43.09.05.15.18.2.27.02.03,0,.1,0,.14Zm4.53-4.73c-.72.82-1.45,1.62-2.19,2.42-.21.24-.5.33-.71.29-.12-.03-.25-.05-.36-.1-.95-.46-1.89-.91-2.83-1.38-.11-.05-.2-.12-.24-.23-.02-.11,0-.27.05-.43.03-.1.12-.21.21-.3.63-.72,1.26-1.43,1.91-2.14.36-.39.63-.5.98-.38.11.03.21.08.33.13.81.39,1.62.75,2.42,1.15.21.11.39.26.55.41.05.05.03.17.05.24-.06.11-.08.23-.15.3Zm4.35-5.18c-.56.85-1.22,1.63-1.91,2.4-.12.12-.29.21-.4.3-.14.04-.25.1-.33.08-.17-.02-.35-.05-.49-.09-.91-.44-1.84-.89-2.74-1.34-.14-.05-.24-.18-.34-.29-.08-.09-.06-.4.09-.57.68-.85,1.35-1.71,2.05-2.53.17-.19.4-.27.59-.26.09,0,.18,0,.25.02,1.06.51,2.12,1.01,3.16,1.54.06.03.11.11.16.17.07.08.03.4-.1.57Zm4.12-5.38c-.28.43-.56.84-.85,1.24-1.42,1.91-1.35,1.97-2.75,1.3-.72-.36-1.46-.71-2.2-1.06-.14-.07-.25-.18-.36-.27-.1-.1-.08-.39.05-.56.62-.87,1.24-1.73,1.86-2.6.13-.15.46-.32.59-.3.12.03.26.03.36.08,1.03.48,2.05.95,3.06,1.44.16.08.25.27.36.38-.06.17-.06.29-.12.37Zm3.64-5.2c-.52.79-1.05,1.57-1.59,2.34-.2.3-.59.48-.84.4-.19-.07-.37-.14-.55-.21-.81-.39-1.62-.77-2.43-1.17-.21-.1-.38-.24-.55-.38-.12-.1-.11-.37,0-.55.59-.9,1.17-1.78,1.75-2.67.08-.09.2-.17.29-.24.1-.02.21-.08.3-.08.16.02.34.05.47.11.99.47,1.98.94,2.96,1.4.07.05.14.09.19.12.24.17.25.57,0,.94Zm3.58-5.65c-.52.86-1.06,1.69-1.59,2.54-.17.26-.48.4-.7.35-.15-.05-.3-.09-.44-.17-.92-.43-1.86-.85-2.76-1.29-.21-.1-.37-.26-.51-.43-.07-.08-.07-.28,0-.4.49-.98,1.08-1.92,1.73-2.86.06-.08.18-.14.3-.23.12,0,.28-.03.4,0,.21.06.43.16.65.26.78.37,1.56.72,2.33,1.11.21.09.4.21.6.34.18.14.2.46,0,.79Zm3.3-5.77c-.51.91-1.03,1.81-1.56,2.71-.06.1-.18.18-.27.26-.09.03-.21.08-.27.08-.17-.03-.34-.06-.48-.12-.99-.46-1.97-.92-2.96-1.4-.14-.07-.26-.16-.37-.27-.17-.17-.2-.44-.02-.8.47-.85.95-1.71,1.43-2.55.14-.24.51-.43.7-.37.03,0,.08.02.11.03,1.16.53,2.32,1.08,3.47,1.63.11.05.18.16.23.26.08.14.12.31-.02.55Zm2.87-5.41c-.38.74-.79,1.49-1.19,2.26-.17.31-.58.55-.82.46-.57-.25-1.15-.5-1.72-.76-.51-.24-.99-.47-1.49-.7-.14-.07-.27-.14-.41-.23-.27-.18-.31-.56-.08-1.02.21-.43.45-.85.66-1.29.77-1.66.93-1.85,2.05-1.3.83.4,1.69.79,2.54,1.2.21.1.4.24.56.39.08.06.08.23.12.38-.08.19-.12.4-.23.62Zm2.93-6.18c-.38.86-.78,1.73-1.19,2.6-.18.37-.48.54-.77.47-.12-.03-.24-.05-.35-.11-1.02-.47-2.05-.95-3.07-1.44-.15-.07-.27-.15-.38-.25-.2-.17-.24-.42-.09-.77.37-.86.79-1.72,1.19-2.59.17-.34.55-.56.79-.48.15.04.31.09.45.16.97.44,1.91.88,2.88,1.34.16.08.34.18.48.31.09.09.12.27.16.38-.04.18-.04.27-.1.39Zm2.74-6.15c-.37.96-.75,1.94-1.27,2.91-.14.24-.47.46-.69.4-.08-.03-.16-.03-.24-.06-1.14-.53-2.26-1.05-3.4-1.59-.14-.07-.27-.17-.34-.3-.07-.14-.14-.33-.07-.52.34-.96.72-1.94,1.2-2.92.11-.18.42-.4.56-.37.17.04.34.05.48.12,1.06.48,2.13.98,3.19,1.49.18.08.32.21.46.34.08.08.09.22.12.29,0,.09,0,.14-.02.21Zm2.37-5.78c-.32.82-.63,1.62-.97,2.44-.23.55-.56.74-.98.6-.11-.04-.22-.08-.33-.14-.96-.44-1.91-.88-2.87-1.32-.14-.07-.27-.14-.41-.21-.34-.23-.5-.57-.21-1.2.34-.81.65-1.62.98-2.42.11-.3.43-.52.65-.48.15.04.31.07.45.13,1.04.47,2.06.94,3.1,1.42.21.11.4.24.55.4.11.1.12.29.17.4-.06.18-.08.29-.12.38Zm2.42-6.24c-.35.91-.68,1.83-1.03,2.74-.05.11-.12.23-.23.3-.06.08-.19.18-.25.2-.2,0-.38,0-.53-.06-1.14-.5-2.29-1.04-3.42-1.56-.07-.03-.14-.07-.21-.11-.33-.23-.46-.59-.21-1.22.27-.7.5-1.4.75-2.1.05-.15.14-.31.22-.48.11-.21.36-.37.53-.34.13.03.27.05.36.09,1.16.52,2.29,1.03,3.44,1.57.21.09.37.27.52.43.07.08.07.24.08.33-.02.1-.02.15-.04.21Zm2.13-5.88c-.33.85-.62,1.7-.95,2.55-.09.27-.42.5-.63.45-.16-.04-.32-.07-.47-.14-1.08-.48-2.13-.96-3.19-1.46-.18-.08-.34-.19-.5-.3-.21-.17-.31-.43-.16-.85.32-.91.62-1.81.96-2.74.04-.12.24-.27.34-.4.17-.02.33-.05.43-.02.24.06.44.15.66.25.88.41,1.77.82,2.66,1.23.21.09.42.19.62.33.28.21.42.52.21,1.09Zm2.19-6.4c-.32.92-.63,1.83-.97,2.74-.12.37-.48.57-.75.49-.22-.08-.45-.17-.66-.26-.91-.4-1.78-.82-2.68-1.23-.22-.09-.42-.19-.63-.31-.34-.23-.48-.58-.24-1.2.26-.75.47-1.49.72-2.25.03-.11.09-.21.15-.32.08-.19.38-.43.53-.42.13.03.27.03.38.09,1.17.52,2.36,1.05,3.55,1.59.14.06.26.15.38.25.22.17.33.43.24.82Zm1.92-5.88c-.2.57-.5,1.48-.82,2.39-.11.36-.48.58-.75.5-.19-.05-.37-.12-.55-.21-.97-.44-1.92-.86-2.89-1.3-.27-.14-.54-.3-.79-.48-.15-.11-.24-.32-.16-.59.27-.99.6-2.01.91-3.01.05-.16.4-.43.54-.41.17.03.34.05.48.1,1.18.53,2.35,1.06,3.52,1.59.14.07.26.17.38.26.22.17.27.45.12,1.17Zm2.1-6.88c-.26,1.17-.59,2.14-.95,3.1-.1.25-.46.49-.66.45-.17-.05-.31-.08-.47-.15-1.11-.5-2.2-.99-3.3-1.5-.18-.07-.36-.17-.5-.27-.28-.23-.4-.55-.24-1.1.3-.9.59-1.8.88-2.71.04-.11.3-.32.4-.32s.2-.02.27,0c.08,0,.17.03.24.06,1.21.54,2.42,1.08,3.63,1.63.15.07.27.15.4.24.22.17.33.42.29.57Zm1.03-3.22c-.1.28-.42.53-.63.5-.19-.06-.4-.1-.57-.18-1.07-.48-2.14-.96-3.22-1.46-.14-.05-.28-.14-.43-.2-.46-.23-.59-.69-.35-1.4.24-.8.48-1.59.74-2.39.1-.29.44-.53.63-.5.17.04.34.08.47.14,1.15.5,2.29,1.01,3.43,1.54.22.09.42.23.59.35.21.14.28.37.28.7-.31.96-.62,1.92-.94,2.89Zm2.72-8.78c-.24.74-.47,1.49-.69,2.23-.08.21-.2.43-.3.65-.18.05-.34.14-.46.11-.24-.05-.47-.13-.68-.22-1.04-.47-2.08-.94-3.11-1.4-.2-.1-.43-.2-.62-.32-.33-.21-.46-.6-.24-1.2.27-.85.51-1.7.79-2.55.05-.18.35-.43.52-.41.16.02.34.02.48.08,1.22.53,2.43,1.07,3.65,1.62.14.06.28.14.4.23.34.21.47.59.26,1.19Zm2.02-6.64c-.31,1.01-.65,2.02-.98,3.04-.05.12-.29.3-.41.29-.12,0-.27.02-.37-.05-1.37-.59-2.73-1.2-4.09-1.81-.11-.05-.19-.12-.29-.2-.22-.18-.3-.45-.16-1.01.19-.68.43-1.52.69-2.38.05-.15.15-.34.27-.47.05-.08.21-.2.26-.2.22.02.44.02.62.09,1.27.55,2.52,1.11,3.77,1.68.22.09.4.24.56.4.15.13.22.34.14.62Zm1.91-6.11c-.29.91-.56,1.81-.85,2.73-.05.17-.39.45-.53.43-.18-.02-.37,0-.5-.07-1.33-.58-2.67-1.17-3.99-1.77-.16-.09-.31-.21-.43-.37-.13-.14-.2-.36-.11-.63.27-.95.57-1.91.87-2.87.08-.24.45-.5.66-.44.16.05.33.07.47.12,1.23.55,2.45,1.09,3.66,1.63.25.12.48.28.67.46.1.1.12.29.17.39-.03.18-.05.27-.07.38Zm2.01-6.24c-.3.91-.6,1.81-.91,2.73-.07.18-.38.43-.53.42-.17-.03-.36-.03-.5-.1-1.33-.58-2.67-1.15-3.99-1.75-.21-.11-.39-.26-.53-.43-.09-.12-.17-.32-.09-.5.3-1.01.48-2,.98-3.03.04-.09.16-.17.26-.25.1-.03.21-.08.29-.08.12.02.26.04.36.08,1.33.57,2.66,1.17,4,1.76.18.08.34.18.47.3.21.19.32.46.18.87Zm2.09-6.38c-.3.96-.64,1.92-.99,2.9-.05.17-.4.41-.53.38-.21-.03-.43-.04-.61-.12-1.26-.55-2.52-1.12-3.77-1.66-.11-.06-.22-.11-.32-.17-.45-.23-.6-.66-.33-1.42.3-.8.56-1.6.85-2.4.03-.08.15-.18.21-.26.11-.05.24-.11.3-.11.18,0,.36.03.5.08,1.33.58,2.68,1.17,4,1.77.24.11.45.29.62.5.08.11.12.32.07.51Zm2.13-6.08c-.32.91-.65,1.83-.99,2.74-.11.3-.41.5-.63.45-.21-.05-.41-.08-.59-.17-1.29-.56-2.57-1.14-3.87-1.72-.14-.06-.28-.12-.4-.23-.29-.2-.41-.53-.23-1.07.3-.81.56-1.61.83-2.42.17-.44.51-.67.85-.58.12.03.24.06.34.11,1.34.58,2.68,1.16,3.99,1.77.25.11.44.28.65.47.08.06.08.21.11.3,0,.14,0,.24-.05.34Zm2.1-5.68c-.24.65-.47,1.3-.71,1.94-.24.6-.63.86-1.09.72-.08-.02-.14-.05-.22-.09-1.33-.58-2.66-1.16-4-1.75-.24-.11-.45-.29-.63-.48-.09-.11-.14-.32-.08-.5.27-.95.58-1.91,1.03-2.9.1-.18.4-.41.56-.4.14,0,.27-.02.38.05,1.48.63,2.97,1.26,4.44,1.92.21.1.36.29.5.45.07.11.05.25.08.37-.08.24-.16.44-.24.66Zm2.51-6.31c-.34.8-.66,1.62-.99,2.43-.11.24-.49.51-.68.48-.16-.02-.34-.03-.49-.08-1.4-.63-2.81-1.23-4.21-1.85-.14-.07-.26-.17-.38-.24-.28-.2-.35-.54-.17-1.01.33-.85.69-1.72,1.03-2.57.07-.18.41-.41.55-.38.21.03.43.04.6.12,1.37.59,2.75,1.18,4.12,1.78.2.1.4.24.56.39.11.09.14.27.2.38-.06.24-.09.39-.14.54Zm2.45-5.75c-.34.74-.69,1.5-1.04,2.26-.09.2-.38.4-.53.38-.17-.03-.36-.03-.5-.08-1.47-.63-2.96-1.28-4.41-1.93-.21-.1-.37-.27-.53-.44-.11-.11-.14-.29-.06-.51.37-.95.75-1.94,1.26-2.9.05-.08.18-.15.28-.23.09-.03.2-.09.27-.08.29.08.56.14.81.25,1.27.53,2.52,1.09,3.78,1.63.14.06.29.12.43.2.51.29.57.64.24,1.44Zm2.83-6.24c-.34.7-.67,1.4-.99,2.12-.34.77-.66.88-1.21.74-.12-.02-.23-.06-.34-.12-1.33-.58-2.67-1.15-4-1.74-.25-.12-.47-.27-.66-.45-.18-.16-.23-.41-.07-.78.41-.87.81-1.73,1.23-2.6.08-.18.41-.41.55-.39.21.03.42.06.6.13,1.46.62,2.9,1.25,4.33,1.88.24.11.44.31.63.5.05.04.04.17.07.27-.05.12-.07.29-.14.43Zm2.88-5.79c-.41.81-.83,1.62-1.26,2.42-.14.27-.47.47-.68.41-.29-.07-.56-.14-.81-.25-1.3-.56-2.62-1.13-3.9-1.68-.25-.11-.48-.26-.69-.43-.19-.15-.26-.4-.08-.77.43-.86.86-1.73,1.3-2.58.1-.21.37-.39.56-.37.16.02.35,0,.49.06,1.61.68,3.19,1.37,4.78,2.06.14.07.25.18.35.3.06.09.08.24.11.36-.05.17-.08.32-.17.49Zm1.81-3.39c-.15.27-.47.47-.69.43-.24-.05-.5-.1-.71-.18-1.42-.6-2.82-1.2-4.24-1.83-.18-.08-.34-.18-.5-.28-.29-.21-.31-.55-.07-1.03.4-.74.82-1.5,1.24-2.26.18-.3.57-.53.83-.48.24.05.47.12.69.21,1.37.59,2.74,1.17,4.12,1.77.37.16.72.31.85.91-.52.92-1.03,1.83-1.54,2.74Zm4.58-7.81c-.43.69-.87,1.37-1.31,2.07-.22.32-.57.52-.83.46-.28-.06-.56-.14-.82-.26-1.31-.56-2.61-1.11-3.9-1.68-.32-.14-.61-.35-.87-.56-.11-.09-.12-.3,0-.54.5-.92.98-1.84,1.64-2.71.07-.09.19-.15.28-.21.08-.02.15-.05.23-.05.02,0,.04.02.05.02.29.05.58.09.84.21,1.37.58,2.74,1.18,4.12,1.78.22.09.43.19.6.33.39.32.37.49-.04,1.17Zm3.83-5.92c-.32.52-.67,1.04-1.03,1.56-.92,1.37-1,1.59-2.17,1.09-1.41-.58-2.81-1.2-4.22-1.8-.29-.12-.57-.24-.74-.52-.07-.15-.1-.34.05-.57.53-.83,1.08-1.68,1.64-2.49.11-.17.45-.37.57-.35.29.05.59.07.85.18.95.38,1.88.79,2.82,1.2.53.21,1.08.43,1.61.69.24.11.45.29.64.46.06.05.07.14.1.24-.04.11-.05.21-.13.31Zm3.93-5.39c-.61.82-1.21,1.64-1.83,2.45-.2.26-.48.4-.72.37-.23-.05-.49-.09-.71-.18-1.52-.65-3.03-1.3-4.54-1.96-.18-.08-.37-.17-.49-.3-.11-.11-.14-.29-.21-.43.57-.95,1.21-1.81,1.88-2.66.21-.27.51-.44.72-.4.29.05.58.1.84.21,1.51.65,3.03,1.29,4.55,1.97.21.08.37.24.55.4.11.08.08.37-.04.55Zm4.1-5.16c-.59.75-1.19,1.49-1.79,2.22-.26.34-.53.46-.85.4-.24-.03-.49-.08-.71-.15-1.52-.65-3.04-1.3-4.55-1.94-.04-.02-.07-.03-.11-.05-.85-.42-.71-.72.15-1.76.51-.63.99-1.3,1.57-1.85.56-.18.93-.02,1.3.12.95.4,1.88.8,2.81,1.2.58.25,1.17.48,1.73.75.21.09.39.24.56.38.14.12.11.43-.11.69Zm4.2-4.72c-.53.58-1.04,1.14-1.56,1.7-.17.18-.39.29-.56.43-.22,0-.42.05-.58.02-.21-.04-.38-.12-.56-.2-1.46-.61-2.9-1.23-4.36-1.85-.14-.06-.29-.12-.42-.2-.66-.37-.66-.6.19-1.54.53-.56,1.04-1.14,1.57-1.68.18-.2.4-.3.57-.29.22,0,.46,0,.65.07.3.08.59.22.88.34,1.2.51,2.39,1.02,3.58,1.54.26.11.52.21.76.33.56.3.49.6-.15,1.33Zm5.26-5.43c-.77.77-1.54,1.54-2.31,2.29-.19.18-.43.26-.59.23-.37-.05-.75-.11-1.07-.24-1.4-.57-2.78-1.17-4.16-1.76-.29-.12-.56-.26-.82-.43-.1-.05-.14-.18-.18-.3-.02-.07.03-.2.06-.29.02-.06.05-.11.09-.17.67-.68,1.31-1.39,2.01-2.07.33-.34.7-.47,1.01-.43.25.04.5.09.72.18,1.61.67,3.2,1.35,4.8,2.04.22.1.39.25.56.4.05.05.02.16.03.26-.03.1-.06.24-.14.3Zm5.33-4.92s-.07.09-.11.13c-.82.73-1.61,1.46-2.4,2.17-.1.08-.21.13-.35.21-.11.02-.27.08-.4.06-.33-.05-.66-.11-.96-.23-1.57-.65-3.13-1.33-4.67-1.99-.22-.11-.39-.25-.58-.39-.12-.08-.08-.4.08-.55.79-.72,1.57-1.47,2.38-2.19.28-.26.62-.33.88-.3.24.02.49.08.71.17,1.63.69,3.27,1.39,4.91,2.09.24.1.52.19.59.51.02.07-.04.19-.08.3Zm5.49-4.48c-.96.79-1.93,1.62-2.88,2.28-.5.11-.88.04-1.2-.1-1.71-.69-3.42-1.41-5.11-2.16-.77-.33-.59-.69.31-1.43.63-.51,1.25-1.02,1.9-1.53.3-.25.62-.33.87-.29.32.05.66.13.94.25,1.62.66,3.2,1.33,4.79,2.02.22.08.39.24.56.38.1.08,0,.44-.18.58Zm6.13-4.58c-.08.09-.18.2-.27.26-.85.61-1.7,1.2-2.54,1.82-.31.23-.6.33-.88.29-.29-.05-.59-.08-.84-.18-1.71-.71-3.42-1.44-5.11-2.17-.24-.11-.49-.22-.46-.65,1.01-.95,2.14-1.65,3.17-2.4.5-.12.89-.09,1.24.05,1.81.75,3.61,1.51,5.43,2.28.14.06.24.19.34.3.08.06.03.31-.09.4Zm6.53-4.28c-1.11.82-2.22,1.46-3.34,2.19-.14.08-.31.12-.43.11-.35-.03-.71-.05-1-.17-1.78-.72-3.56-1.48-5.34-2.23-.21-.1-.4-.24-.36-.59.14-.12.27-.27.42-.37.85-.56,1.7-1.12,2.57-1.69.42-.27.81-.38,1.15-.31.28.05.58.11.84.22,1.68.69,3.34,1.39,5,2.1.18.07.34.18.47.33.08.07.03.26.03.43Zm3.56-2.1c-.42.23-.81.3-1.14.22-.19-.05-.41-.08-.59-.15-1.78-.75-3.58-1.5-5.34-2.27-.17-.06-.27-.24-.39-.4,0-.03.05-.21.13-.29.08-.08.18-.15.3-.22.81-.49,1.62-.96,2.45-1.46.81-.48,1.51-.62,2.09-.34.09.04.22.07.33.12,1.68.7,3.35,1.39,5.03,2.1.18.08.34.18.48.32.06.07.03.25.05.4-1.13.75-2.26,1.34-3.39,1.97Zm10.62-5.77c-.14.11-.28.24-.43.32-.98.49-1.95.98-2.91,1.48-.11.05-.21.08-.44.18-.17.02-.47.08-.71.05-.3-.02-.58-.09-.85-.2-1.75-.72-3.51-1.45-5.25-2.19-.14-.05-.25-.17-.37-.26-.12-.08-.03-.43.15-.54.15-.09.3-.21.45-.3.87-.46,1.75-.89,2.62-1.35.59-.31,1.11-.4,1.57-.3.2.04.4.09.59.16,1.78.75,3.58,1.49,5.34,2.24.15.05.24.18.37.27.07.05-.02.34-.13.43Zm7.84-3.61c-1.33.71-2.66,1.31-3.99,1.81-.23.11-.48.11-.69.09-.34-.05-.68-.11-.97-.23-1.75-.71-3.48-1.43-5.24-2.19-.18-.08-.31-.21-.47-.32-.05-.05.07-.36.18-.43.21-.12.4-.27.61-.37.66-.3,1.33-.59,2.31-1.04,1.1-.67,2.11-.56,3.05-.13,1.54.69,3.13,1.31,4.69,1.97.24.11.46.27.67.43.1.06-.02.34-.15.4Zm8.55-3.65c-.05.09-.14.24-.18.27-1.39.57-2.77,1.17-4.14,1.68-.37.14-.75.08-1.08.05-.3-.02-.57-.14-.83-.24-1.72-.7-3.42-1.42-5.14-2.14-.18-.07-.34-.17-.47-.32-.06-.05.03-.26.04-.43,1.37-.63,2.7-1.1,4.01-1.62.47-.2.89-.24,1.27-.14.27.06.56.12.82.23,1.72.7,3.43,1.42,5.15,2.14.21.08.39.24.56.37.03.02.03.09,0,.14Z"/>
</svg>