<?xml version="1.0" encoding="UTF-8"?>
<svg id="Calque_1" data-name="Calque 1" xmlns="http://www.w3.org/2000/svg" viewBox="0 0 500 500">
  <defs>
    <style>
      .cls-1 {
        fill: #022873;
      }
    </style>
  </defs>
  <path class="cls-1" d="m485.63,104.7c-.04-.06-.12-.14-.19-.17-.78-.36-1.57-.7-2.34-1.06-.02,0-.04,0-.06-.02-1.08-.49-2.16-.97-3.24-1.46-3.68-1.65-7.32-3.3-11-4.9l-.02-.02s-.03-.02-.05-.02c-.4-.2-.74-.45-1.28-.41-.06.03-.11.05-.14.08-.04,0-.04.02-.06.04-.09.16-.18.31-.3.43-.37.52-.83.91-1.36,1.17-.02.02-.04.04-.05.04-.15.09-.29.14-.43.22-.75.3-1.48.59-2.2.88-5.01,1.93-10.06,4.22-15.11,6.64-4.85,2.32-9.69,4.9-14.52,7.71-8.89,5.19-17.57,11.13-25.97,18.18-4.01,3.35-7.88,6.86-11.62,10.65-.99,1.01-2,2.02-2.99,3.04-.68.71-1.39,1.16-2.14,1.4-.32.1-.67.2-.97.26-1.23.26-2.38.31-3.47.24-2.31-.16-4.36-.74-6.27-1.57-12.86-5.48-25.71-10.97-38.57-16.44-9.71-4.13-19.43-8.26-29.15-12.41-4.96-2.1-9.89-4.22-14.87-6.3-1.22-.54-2.4-1.16-3.46-1.94-.97-.7-1.84-1.53-2.47-2.61-.28-.5-.52-1.02-.58-1.69-.04-.69.09-1.43.72-2.24.31-.4.58-.81.89-1.23,5.39-7.4,11.41-14.28,18.08-20.6,6.09-5.77,12.51-10.87,19.13-15.42,4.56-3.13,9.17-5.98,13.81-8.56,2.68-1.49,5.37-2.87,8.06-4.29,1.64-.84,3.23-1.37,4.7-1.41l.15-4.14v-.15c-.33-.14-.67-.27-1.01-.41-.15-.08-.33-.1-.53-.04-.1,0-.24.04-.36.1-.27.12-.54.19-.81.35-.2.11-.38.2-.54.29-.88.39-1.64.39-2.31.2-.06-.01-.08-.01-.14-.03-.04-.02-.06-.02-.1-.04-.24-.09-.48-.18-.71-.27-2.12-.88-4.22-1.77-6.32-2.66-.2-.08-.37-.16-.55-.24-.09-.06-.2-.1-.26-.19-.05-.12-.1-.28-.06-.46,0-.08.19-.28.32-.33.59-.34,1.19-.66,1.86-1.02-.08-.2-.1-.4-.2-.46-.54-.29-1.13-.52-1.68-.77-.3-.15-.65-.13-1.08.07-1.34.63-2.69,1.28-4.02,1.91-.55.26-1.08.52-1.6.8-2.99,1.44-5.94,3.04-8.89,4.7-6.6,3.73-13.09,7.95-19.46,12.82-6.31,4.83-12.31,10.17-17.94,16.15-5.74,6.12-10.91,12.59-15.43,19.45-4.85,7.36-8.87,14.84-12.3,22.4-1.98,4.41-3.74,8.81-5.33,13.19-1.55,4.31-2.96,8.6-4.18,12.86-.85,2.93-1.7,5.86-2.39,8.75-.69,2.97-1.47,5.94-2.14,8.89-.54,2.4-.93,4.77-1.46,7.17-.79,3.63-1.41,7.21-2,10.78-.16,1.01-.32,2.01-.48,3.02-32.19-11.82-55.46-13.88-69.85-13.88-47.18,0-87.55,18.39-114.29,43.47-27.23,25.51-45.82,63.13-45.82,102.87,0,36.36,16.31,74.42,45.82,101.59,24.92,22.57,64.39,41.8,117.01,41.8,9.93,0,15.71-.93,26.45-3.17.14-.04.47-.21.53-.23.46-.2.93-.36,1.4-.52,3.66-1.37,7.36-2.89,11.04-4.44,4.04-1.7,8.06-3.55,12.09-5.53,4.51-2.22,9.02-4.63,13.5-7.27,7.33-4.29,14.54-9.08,21.59-14.61,8.16-6.38,15.84-13.51,22.96-21.49,4.06-4.52,7.82-9.24,11.38-14.09,5.64-7.72,10.52-15.66,14.87-23.76,2.8-5.15,5.34-10.35,7.68-15.55,1.26-2.77,2.47-5.56,3.64-8.34.1-.22.18-.43.27-.65,2.01-4.81,3.88-9.63,5.63-14.42,2.06-5.59,3.98-11.17,5.84-16.71,2.11-6.35,4.1-12.66,6.1-18.97,2.03-6.47,4.02-12.91,6.02-19.36.05-.16.1-.34.16-.51,2.38-7.67,4.87-15.38,7.51-23.11,2.73-7.97,5.65-15.95,8.95-23.98,3.07-7.46,6.46-14.93,10.3-22.39.44-.88.91-1.75,1.38-2.63.05-.11.11-.19.18-.31,2.72-5.1,5.68-10.16,8.9-15.17,5.78-9.01,12.34-17.55,19.77-25.59,2.86-3.1,5.82-6.08,8.89-8.89,1.94-1.84,3.92-3.61,5.94-5.33,6.89-5.88,14.01-11.05,21.29-15.69,8.7-5.5,17.42-10.1,26.18-14.1,4.02-1.84,8.06-3.58,12.07-5.09,1.72-.66,3.47-1.33,5.21-2,.26-.1.53-.22.79-.35.05-.02.1-.11.14-.18.04-.06.08-.16.06-.18-.04-.06-.1-.1-.14-.14Zm-191.83,11.48c14.71,6.27,29.42,12.54,44.13,18.82,10.48,4.47,20.95,8.92,31.42,13.39,2.24.96,4.47,1.92,6.71,2.89,1.57.68,3.01,1.51,4.18,2.7.65.69,1.27,1.42,1.52,2.49.07.27.14.54.14.85.02.58-.18,1.21-.67,1.85-.28.4-.59.8-.89,1.2-3,3.94-5.77,7.96-8.38,12.07-3.76,5.92-7.15,11.88-10.22,17.94-3.58,7.11-6.73,14.21-9.58,21.31-1.43,3.55-2.78,7.09-4.06,10.62-.18.49-.36.99-.58,1.5-.38.86-.99,1.49-1.8,1.87-.76.35-1.47.55-2.14.59-1.17.08-2.26,0-3.23-.28-.93-.29-1.8-.61-2.65-.97-7.81-3.43-15.61-6.85-23.42-10.28-15.94-6.99-31.86-14.01-47.79-21.01-1.78-.75-3.39-1.67-4.73-2.99-.77-.77-1.46-1.64-2-2.66-.56-1.09-.83-2.35-.56-3.36.67-3.06,1.19-5.47,1.71-7.86.37-1.57.75-3.16,1.09-4.74,1.46-6.46,3.26-13,5.32-19.59,2.03-6.46,4.4-12.97,7.19-19.51,2.14-5.05,4.6-10.1,7.31-15.13.98-1.8,1.43-2.32,3.41-2.89.73-.2,1.39-.23,2.06-.24,1.13-.04,2.2.1,3.21.34,1.15.27,2.25.63,3.3,1.08Zm-88.61,252c-.16-.09-.31-.25-.4-.43-.05-.13,0-.36,0-.54.02-.08.06-.15.09-.22.69-1.12,1.38-2.22,2.06-3.34.16-.23.57-.46.75-.44.17.02.35.04.47.1,1.27.59,2.51,1.21,3.73,1.82.19.1.31.26.43.4.06.07.06.22.08.34-.04.13-.04.27-.12.39-.69,1.13-1.4,2.22-2.1,3.33-.18.28-.71.52-.93.47-.17-.04-.33-.06-.47-.13-1.19-.58-2.4-1.16-3.59-1.75Zm2.43,5.12c-.81,1.16-1.62,2.29-2.45,3.42-.16.24-.56.4-.75.36-.16-.03-.33-.05-.48-.1-1.19-.58-2.37-1.16-3.56-1.75-.18-.09-.33-.24-.42-.42-.06-.13-.06-.39.04-.54.77-1.15,1.58-2.31,2.38-3.44.08-.13.25-.21.39-.35.18-.03.42-.12.54-.06,1.43.66,2.83,1.37,4.26,2.04.04.02.05.1.09.14.12.12.12.47-.04.7Zm4.13-11.27c-.79-.36-1.57-.76-2.32-1.15-.42-.22-.46-.67-.12-1.32.53-.99,1.07-1.98,1.61-2.97.31-.58.76-.81,1.19-.65.11.04.2.07.29.1,1.17.55,2.32,1.09,3.48,1.65.22.11.43.27.62.43.08.1.1.28.16.4-.04.19-.06.32-.12.47-.04.12-.12.26-.2.41-2.46,4.18-1.67,3.97-4.59,2.63Zm1.88-8.44c-.18-.09-.36-.21-.48-.36-.16-.22-.23-.48-.03-.88.54-1.12,1.08-2.25,1.64-3.39.18-.36.63-.65.89-.58.14.04.32.06.45.13,1.24.58,2.48,1.17,3.73,1.79.18.08.34.19.47.35.08.12.12.28.18.4-.04.18-.04.31-.1.43-.48,1.21-1.11,2.4-1.82,3.59-.14.22-.55.45-.75.42-.16-.04-.32-.06-.47-.11-1.24-.59-2.49-1.19-3.71-1.79Zm23.25-87.56c.16.03.32.03.47.09,1.51.69,3.01,1.35,4.51,2.04.27.12.5.32.74.52.2.15.28.41.25.75-.07.65-.18,1.32-.25,1.99-.02,0-.04,0-.04.02-.09.6-.15,1.19-.23,1.79-.06.37-.24.66-.44.77-.3.16-.52.14-.7.07-1.6-.72-3.19-1.44-4.78-2.18-.64-.29-.9-.9-.72-1.87.22-1.16.36-2.28.54-3.41.04-.25.45-.61.65-.58Zm-1.17,8.62c.2.05.42.11.6.18,1.36.61,2.71,1.23,4.07,1.85.29.13.54.29.78.47.28.22.46.54.37,1.03-.23,1.35-.51,2.7-.75,4.06-.06.24-.45.54-.67.44-1.73-.75-3.48-1.51-5.19-2.32-.49-.22-.69-.72-.56-1.44.07-.54.14-1.06.18-1.33.16-.94.27-1.61.4-2.3.04-.34.5-.71.77-.64Zm-1.26,8.6c.11.02.19.04.31.07.14.05.28.13.42.17,1.21.57,2.44,1.13,3.65,1.7.33.15.63.32.9.54.28.22.42.57.34,1.07-.06.47-.12.93-.18,1.39-.02.01-.05.01-.07.03-.18.83-.36,1.65-.56,2.48-.06.26-.43.55-.65.5-.16-.04-.34-.04-.46-.11-1.47-.65-2.91-1.32-4.37-2-.09-.04-.18-.09-.25-.15-.51-.28-.75-.77-.59-1.6.23-1.16.44-2.31.69-3.48.06-.33.55-.69.82-.61Zm-.96,8.7c1.32.6,2.62,1.19,3.91,1.8.29.15.53.33.77.51.21.14.28.44.24.76-.05.52-.14,1.06-.18,1.35-.24,1.06-.43,1.89-.64,2.73-.06.21-.51.57-.69.53-.16-.03-.32-.03-.47-.1-1.41-.63-2.8-1.28-4.2-1.94-.18-.08-.36-.17-.52-.3-.33-.25-.49-.63-.38-1.21.18-.95.3-1.89.54-2.85.1-.43.04-.97.65-1.35.45-.31.7-.05.97.07Zm2.56,10.42c.13.08.27.15.34.29.13.28.2.6.27.8-.32,1.38-.63,2.61-.93,3.86-.09.35-.55.71-.81.65-.2-.04-.42-.08-.61-.17-1.31-.6-2.6-1.21-3.9-1.81-.18-.08-.36-.17-.5-.3-.36-.31-.55-.73-.36-1.4.3-1.25.59-2.48.9-3.72.05-.16.37-.4.51-.38.12,0,.24-.02.33.02,1.59.73,3.18,1.44,4.76,2.16Zm-6.52,6.19c1.47.68,2.95,1.37,4.44,2.07.1.04.17.11.24.17.35.24.49.62.4,1.22-.34,1.24-.7,2.49-1.04,3.73-.06.2-.53.54-.69.48-.22-.04-.43-.08-.61-.17-1.31-.6-2.6-1.19-3.9-1.81-.18-.08-.34-.2-.52-.3-.3-.22-.43-.56-.32-1.07.18-.81.38-1.64.57-2.47.13-.46.27-.95.42-1.43.07-.26.46-.53.68-.49.11.03.22.03.33.07Zm-1.88,8.34c1.27.58,2.52,1.17,3.77,1.77.27.13.51.33.74.51.2.16.25.45.2.79-.07.34-.15.68-.25,1.03-.1.34-.28.7-.34,1.05-.67,2.68-1.01,2.59-2.51,1.87-.98-.47-1.95-.92-2.92-1.39-.27-.12-.55-.27-.79-.45-.31-.2-.41-.58-.28-1.08.09-.41.18-.83.31-1.25.25-.9.54-1.82.83-2.73.25-.12.47-.26.63-.26.23,0,.43.06.61.14Zm1.62,10.05c.15.05.29.14.36.27.12.18.2.38.2.61-.06.78-.95,3.35-1.46,4.2-.05.09-.23.24-.34.26-.2.05-.42.08-.54.03-1.5-.7-2.97-1.41-4.45-2.13-.32-.16-.44-.54-.28-1.44.3-.87.73-2.12,1.16-3.39.03-.06.09-.14.15-.2.12-.09.27-.21.37-.25.18-.04.38-.05.5.02,1.47.65,2.91,1.34,4.33,2.02Zm-6.55,6.13c1.15.52,2.3,1.08,3.45,1.62.24.11.45.23.63.41.26.25.36.61.15,1.16-.45,1.13-.88,2.26-1.34,3.39-.14.32-.61.63-.87.56-.2-.06-.4-.11-.59-.2-1.21-.56-2.4-1.12-3.61-1.7-.17-.09-.34-.2-.5-.3-.25-.2-.34-.52-.19-.96.39-1.26.81-2.51,1.42-3.78.06-.13.22-.24.32-.37.12-.01.26-.08.36-.08h.02c.25.05.51.14.75.25Zm.44,9.48c.23.13.43.27.61.43.2.18.26.49.12.85-.51,1.21-1.05,2.42-1.63,3.62-.07.16-.34.31-.51.46-.21,0-.41.03-.55-.02-1.39-.65-2.78-1.32-4.15-2-.18-.08-.33-.24-.41-.42-.08-.14-.13-.34-.04-.53.51-1.27,1.07-2.55,1.6-3.83.12-.22.54-.49.74-.43.2.04.42.06.61.16,1.21.56,2.42,1.13,3.61,1.71Zm-3.57,17.62c.18-.37.38-.71.56-1.07,4.02-7.3,7.27-14.6,10.08-21.92,2.4-6.24,4.41-12.42,6.18-18.57,1.12-3.91,2.15-7.79,3.09-11.66,1.01-4.2,1.98-8.4,2.77-12.56.16-.86.38-1.76.63-2.67.28-1.03,1.19-2,2.2-2.32.34-.1.67-.18.97-.21,1.01-.13,1.92-.04,2.71.23.74.27,1.47.56,2.16.89,9.97,4.56,19.95,9.12,29.91,13.69,9.86,4.53,19.75,9.07,29.61,13.6.7.32,1.39.66,2.05,1.04,1.16.65,2.07,1.58,2.8,2.71.34.56.61,1.21.82,1.9.15.46.13,1.03.19,1.54-.19.66-.33,1.3-.57,1.93-1.92,5.3-3.96,10.62-6.2,15.94-1.44,3.43-2.97,6.83-4.56,10.24-3.6,7.7-7.7,15.33-12.42,22.86-2.92,4.67-6.05,9.25-9.48,13.72-.14.2-.3.4-.45.6-1.05,1.44-2.27,2.16-3.59,2.46-1.37.35-2.63.39-3.71.07-.78-.21-1.52-.5-2.2-.83-7.5-3.6-14.97-7.23-22.45-10.83-8.87-4.28-17.73-8.54-26.61-12.84-.65-.3-1.3-.61-1.93-.93-1.06-.56-1.91-1.32-2.5-2.36-.34-.59-.56-1.25-.63-2.04-.1-.81.1-1.68.57-2.61Zm94.89-47.77c-.61-.21-1.17-.44-1.74-.7-15.03-6.89-30.05-13.76-45.08-20.64-5.29-2.41-10.57-4.83-15.89-7.23-1.26-.57-2.41-1.3-3.38-2.23-.89-.83-1.63-1.81-2.16-2.96-.48-1.08-.62-2.35-.39-3.88,1.03-6.69,2.04-13.37,2.98-20.04.76-5.34,1.41-10.64,2.18-16.48,1.23-8.85,2.48-18.24,3.82-27.64.4-2.86.9-5.77,1.37-8.67.06-.27.11-.54.2-.81.18-.67.9-1.48,1.53-1.8.56-.29,1.08-.45,1.57-.49.76-.08,1.46-.08,2.13.04,1.26.17,2.4.59,3.48,1.07,6.8,3.01,13.59,6.01,20.39,9,16.81,7.41,33.64,14.82,50.46,22.21,1.77.78,3.33,1.79,4.6,3.15.59.67,1.09,1.45,1.48,2.34.48,1.05.4,2.34-.08,3.88-1.33,4.28-2.65,8.55-3.93,12.83-1.17,3.91-2.27,7.8-3.41,11.71-1.75,6.08-3.45,12.14-5.23,18.22-1.63,5.73-3.31,11.45-5.01,17.17-.82,2.8-1.73,5.61-2.6,8.4-.16.49-.32.99-.53,1.49-.36.87-1.01,1.49-1.82,1.86-.82.39-1.59.59-2.31.59-.96.02-1.84-.11-2.63-.39Zm19.02-264.79c1.33-.72,2.69-1.45,4.02-2.15.41-.21.79-.27,1.13-.21.43.08.89.12,1.26.28,2.42.97,4.8,1.96,7.2,2.97.21.12.37.31.55.49.1.1-.08.46-.24.54-1.41.73-2.82,1.44-4.24,2.18-.71.39-1.3.45-1.84.33-.27-.07-.52-.14-.76-.25-2.31-.94-4.59-1.89-6.89-2.87-.25-.09-.47-.22-.65-.38-.1-.09-.1-.3-.16-.46.24-.19.42-.39.62-.47Zm-9.21,5.28c1.26-.78,2.52-1.54,3.78-2.29.12-.1.27-.14.54-.28.18-.02.53-.1.79-.06.43.04.87.16,1.25.3,2.29.94,4.57,1.9,6.87,2.85.23.1.43.25.63.4.22.16.04.65-.31.86-1.26.74-2.54,1.5-3.81,2.24-.46.28-.93.43-1.31.34-.43-.11-.87-.18-1.24-.32-2.3-.94-4.58-1.9-6.87-2.87-.22-.09-.4-.27-.6-.43-.14-.13.04-.6.28-.74Zm-8.23,5.37c1.12-.75,2.26-1.52,3.37-2.29.49-.34.92-.47,1.33-.42.34.06.67.1.97.22,2.43,1.01,4.86,2.02,7.29,3.05.15.07.26.16.36.27.06.07.08.2.11.3-.07.14-.11.31-.21.4-.16.16-.38.31-.56.43-.79.54-1.62,1.01-2.38,1.61-1.21.97-2.09.97-2.92.69-.2-.08-.4-.16-.58-.24-2.06-.87-4.1-1.72-6.16-2.58-.33-.15-.62-.34-.91-.54-.21-.14-.04-.66.29-.9Zm-7.72,5.75c1.09-.86,2.18-1.71,3.27-2.54.34-.26.69-.36.97-.32.44.05.91.1,1.27.24,2.34.98,4.67,1.97,6.99,2.97.18.08.32.21.47.36.05.06.04.21.05.32-.09.14-.16.31-.26.39-1.16.91-2.32,1.81-3.49,2.67-.32.26-.67.36-.95.31-.43-.05-.89-.13-1.27-.27-2.19-.92-4.37-1.84-6.54-2.77-.29-.13-.52-.31-.76-.49-.23-.16-.1-.58.25-.87Zm-7.21,6.1c1.05-.94,2.1-1.9,3.18-2.8.21-.18.56-.31.76-.29.46.02.92.07,1.29.23,2.3.94,4.58,1.92,6.87,2.87.18.09.34.22.48.36.08.06.08.2.12.3-.06.14-.08.28-.16.39-.15.2-.33.38-.51.54-.56.48-1.13.97-1.69,1.46-1.57,1.31-1.66,1.53-3.03.99-2.33-.9-4.6-1.89-6.87-2.87-.24-.1-.42-.29-.6-.45-.14-.12-.05-.56.16-.73Zm-6.56,6.25c.96-1.05,1.95-2.07,3.03-2.97.11-.11.25-.15.42-.24.16,0,.36-.05.52-.02.41.09.85.18,1.23.34,2.05.85,4.1,1.72,6.16,2.58.29.13.55.29.79.45.29.2.22.69-.14,1.05-.9.87-1.82,1.73-2.72,2.6-.39.37-.81.52-1.16.47-.38-.06-.75-.15-1.09-.27-2.16-.91-4.3-1.81-6.44-2.73-.29-.13-.51-.32-.74-.5-.15-.13-.05-.54.14-.76Zm-5.95,6.34c.85-.93,1.7-1.87,2.55-2.79.32-.32.68-.45.97-.43.34.02.67.09.95.19,2.3.96,4.56,1.94,6.84,2.93.23.09.37.3.53.48.14.13.06.38-.1.58-.89,1.01-1.78,2-2.69,2.99-.14.17-.38.25-.61.41-.22,0-.48.06-.68.02-.38-.08-.73-.19-1.07-.34-1.94-.83-3.89-1.66-5.84-2.5-.36-.17-.68-.4-1.01-.63-.22-.15-.12-.57.16-.91Zm-5.69,7.07s.06-.14.1-.19c.78-1,1.56-1.99,2.33-2.94.15-.19.38-.31.56-.45.22-.04.42-.12.58-.1.37.08.73.16,1.08.3,2,.83,4,1.67,5.99,2.53.35.16.67.42.99.66.12.1.07.51-.1.73-.77.99-1.55,1.96-2.34,2.96-.27.34-.81.6-1.13.54-.33-.07-.63-.14-.93-.25-2.08-.88-4.18-1.77-6.27-2.65-.38-.16-.76-.34-.9-.76-.04-.08.02-.25.04-.38Zm-4.93,6.72c.77-1.07,1.52-2.16,2.3-3.22.16-.23.51-.39.73-.36.33.03.69.07.95.18,2.21.92,4.39,1.84,6.55,2.78.28.12.48.36.68.58.06.06.04.21.06.32-.06.14-.07.29-.16.41-.72,1.01-1.44,2.02-2.18,3.01-.22.31-.67.54-.93.51-.33-.04-.67-.07-.97-.2-2.14-.88-4.26-1.79-6.4-2.7-.26-.13-.48-.34-.68-.58-.13-.14-.15-.42.05-.73Zm-4.18,6.46c.51-.83,1.03-1.65,1.57-2.48.2-.31.69-.6.92-.55.32.06.65.13.94.24,2.05.86,4.09,1.73,6.13,2.61.32.15.6.36.88.58.18.15.14.58-.07.9-.65,1.05-1.32,2.08-2.02,3.1-.11.19-.36.31-.52.45-.22.02-.42.08-.58.02-.4-.11-.81-.24-1.19-.4-1.72-.72-3.43-1.44-5.13-2.18-.33-.14-.67-.27-.97-.47-.69-.44-.59-.79.04-1.82Zm-4.2,7.34c.45-.83.92-1.68,1.39-2.53.16-.3.67-.61.92-.59.27.04.58.05.82.15,2.08.88,4.18,1.76,6.24,2.66.33.15.58.42.85.63.06.08.06.22.08.33-.04.14-.04.27-.12.42-.63,1.11-1.25,2.23-1.9,3.35-.13.23-.54.46-.74.43-.33-.05-.67-.07-.96-.2-2-.83-3.98-1.69-5.98-2.54-.18-.09-.38-.18-.54-.29-.58-.37-.65-.74-.06-1.82Zm-3.8,7.49c.38-.77.73-1.54,1.13-2.32.15-.29.38-.53.55-.77.54-.2.91-.11,1.23.04,2.12.87,4.21,1.78,6.28,2.68.43.18.83.41.87,1.06-.49,1.14-1.07,2.34-1.75,3.53-.21.37-.61.65-.9.62-.28-.03-.56-.07-.8-.16-2-.85-4-1.71-5.98-2.56-.14-.06-.29-.12-.42-.2-.7-.43-.73-.81-.21-1.92Zm-3.55,8.05c.46-1,.84-1.99,1.27-2.98.2-.45.67-.77,1.03-.68.36.09.73.2,1.05.34,1.75.74,3.51,1.48,5.25,2.26.41.18.79.43,1.15.7.12.07.14.25.22.37-.04.17-.04.32-.1.44-.5,1.14-.99,2.27-1.49,3.41-.14.33-.63.67-.89.61-.32-.07-.64-.12-.91-.24-1.92-.81-3.81-1.62-5.68-2.44-.29-.11-.56-.27-.78-.45-.32-.28-.45-.66-.12-1.34Zm-3.01,7.7c.4-.99.75-1.98,1.13-2.98.12-.34.6-.7.87-.65.3.08.64.14.91.26,1.92.81,3.81,1.62,5.71,2.45.23.11.46.24.66.38.38.28.49.72.15,1.47-.46,1-.78,1.99-1.17,2.98-.08.2-.3.4-.42.58-.17.04-.31.1-.41.08-.33-.04-.66-.1-.95-.21-1.85-.8-3.69-1.61-5.53-2.42-.23-.1-.47-.23-.67-.36-.46-.28-.63-.77-.28-1.58Zm-2.77,8.18c.26-.95.64-2.14,1.16-3.35.11-.29.49-.58.68-.54.28.04.56.07.8.16,1.95.83,3.89,1.68,5.84,2.52.27.13.53.31.74.51.23.22.31.52.15.99-.38,1.13-.78,2.26-1.16,3.39-.15.38-.58.72-.83.67-.33-.07-.65-.13-.92-.25-1.82-.78-3.63-1.55-5.43-2.33-.26-.13-.52-.29-.77-.47-.32-.2-.42-.55-.26-1.3Zm-2.52,8.28c.36-1.19.74-2.36,1.1-3.55.09-.26.49-.56.69-.54.21.01.47,0,.65.09,2,.83,3.98,1.69,5.94,2.55.3.13.53.31.73.53.18.18.25.46.14.83-.34,1.19-.71,2.36-1.06,3.55-.15.47-.6.77-.99.67-.26-.06-.52-.13-.76-.22-1.75-.76-3.5-1.52-5.23-2.29-.36-.16-.69-.4-.99-.65-.25-.2-.31-.54-.22-.97Zm-2.07,7.98c.25-.9.43-1.78.69-2.68.07-.29.16-.57.32-.85.09-.16.37-.36.53-.4.22-.03.46,0,.64.1,1.95.82,3.9,1.67,5.84,2.52.24.1.45.24.63.4.29.23.45.55.29,1.09-.33,1.18-.63,2.37-.95,3.56-.11.34-.58.7-.85.65-.22-.06-.43-.08-.61-.17-1.86-.79-3.72-1.59-5.56-2.4-.28-.12-.54-.28-.76-.5-.3-.29-.39-.71-.21-1.32Zm-1.98,8.61c.29-1.23.57-2.47.86-3.7.07-.24.48-.58.68-.56.22.02.46.02.65.11,1.9.79,3.77,1.62,5.67,2.43.05.02.09.04.14.08.83.44.9.68.69,2.03-.28,1.02-.53,2.07-.81,3.1-.1.34-.52.65-.82.58-.19-.05-.41-.11-.59-.2-1.8-.76-3.61-1.53-5.39-2.32-.27-.14-.53-.3-.75-.49-.3-.22-.44-.56-.33-1.06Zm-1.67,8.34c.1-.47.19-.93.28-1.4h-.02c.13-.67.25-1.35.4-2.04.13-.56.61-.92,1.06-.8.14.06.3.1.45.16,1.75.77,3.48,1.52,5.23,2.28.18.09.36.18.54.27.52.29.76.78.58,1.61-.26,1.17-.4,2.28-.8,3.49-.07.23-.49.55-.68.53-.22-.04-.45-.04-.65-.13-1.78-.78-3.57-1.55-5.36-2.35-.2-.09-.36-.17-.54-.31-.39-.24-.59-.66-.49-1.31Zm-1.43,8.02c.26-1.17.28-2.25.64-3.42.31-.28.58-.42.81-.36.26.07.51.14.75.25,1.57.68,3.11,1.35,4.66,2.05.39.17.75.37,1.07.6.34.23.47.65.36,1.22-.24,1.23-.5,2.46-.76,3.68-.06.26-.43.58-.65.54-.26-.03-.54-.06-.77-.16-1.67-.72-3.32-1.44-4.96-2.18-.14-.06-.29-.12-.41-.2-.72-.32-1-.95-.74-2.02Zm-1.43,8.76c.24-1.22.29-2.38.58-3.57.3-.34.58-.48.81-.45.16.02.32.06.46.11,1.76.78,3.51,1.53,5.25,2.31.24.11.45.23.65.39.34.24.51.64.42,1.21-.22,1.29-.47,2.57-.7,3.84-.04.22-.49.57-.69.51-.25-.05-.52-.11-.75-.21-1.63-.71-3.23-1.41-4.84-2.12-.18-.08-.35-.18-.54-.26-.58-.31-.82-.85-.65-1.76Zm-1.2,8.53c.1-.47.14-.93.23-1.72.07-.33.18-.99.29-1.68.03-.16.21-.34.37-.46.12-.06.2-.1.28-.08.25.06.53.1.77.22,1.61.68,3.19,1.38,4.8,2.1.23.09.47.22.67.34.48.33.71.81.57,1.62-.22,1.16-.36,2.28-.56,3.41-.05.37-.51.75-.77.69-.11-.02-.24-.02-.33-.06-.2-.06-.4-.14-.58-.23-1.51-.64-3.01-1.32-4.52-1.99-.11-.05-.21-.1-.33-.16-.03,0-.05-.01-.08-.03-.71-.31-1.03-.9-.81-1.97Zm-1.19,9.27c.18-1.34.36-2.65.54-3.98.03-.27.43-.61.63-.57.3.08.63.17.91.28.06.02.12.03.14.05,1.43.62,2.84,1.25,4.24,1.88.24.1.49.21.69.34.18.1.32.24.47.38.18.18.29.41.25.75-.09.73-.18,1.47-.28,2.18h0c-.07.48-.11.93-.19,1.41-.06.31-.02.67-.48.96-.37.27-.61.13-.85.01-1.33-.57-2.66-1.17-4-1.76-.36-.16-.71-.32-1.07-.48-.24-.1-.44-.24-.64-.4-.29-.22-.43-.57-.37-1.05Zm-1.05,8.38c.2-1.26.36-2.52.56-3.76.02-.14.36-.44.49-.44.1,0,.24-.04.34,0,.21.06.39.13.59.22.38.18.78.34,1.15.52,1.13.49,2.22.99,3.34,1.48.18.09.36.18.56.26.61.26.83.83.67,1.7-.09.55-.15,1.07-.22,1.59h.03c-.12.67-.22,1.34-.34,2-.05.27-.41.59-.61.57-.27-.06-.54-.12-.77-.2-.89-.4-1.77-.79-2.66-1.2-.66-.28-1.31-.58-1.98-.88-.18-.07-.36-.16-.54-.27-.49-.3-.75-.78-.61-1.59Zm-.95,7.96c.34-3,.39-3.25.75-3.34,1.1-.29,1.64.39,2.4.69.32.12.63.24.93.37.75.31,1.47.67,2.18.99.33.17.64.33.93.54.28.22.43.56.36,1.05-.1.67-.16,1.33-.26,2h-.02c-.06.67-.16,1.31-.24,1.98-.04.28-.44.62-.63.58-.26-.07-.55-.1-.78-.22-.51-.22-1.03-.44-1.54-.68-.52-.21-1.04-.45-1.56-.69-.48-.21-.94-.41-1.41-.65-.24-.1-.47-.21-.67-.36-.4-.25-.59-.68-.56-1.29.02-.31.08-.65.12-.97Zm-1.05,9.82c.06-.67.16-1.32.25-1.99-.02.02-.05.02-.09.04.07-.52.14-1.06.22-1.59.03-.26.07-.55.34-.79.37-.34.63-.22.86-.12.18.08.38.16.56.25.99.43,2,.88,2.99,1.33.33.13.64.28.96.42.13.07.27.14.41.2.87.3,1.14,1.05.95,2.23-.2,1.06-.32,2.11-.48,3.18-.05.35-.49.67-.79.59-.06-.02-.1-.02-.16-.04-.04,0-.09-.02-.14-.04-.26-.1-.49-.21-.75-.32-1.44-.65-2.88-1.3-4.3-1.94-.15-.06-.29-.13-.4-.24-.29-.27-.51-.61-.43-1.17Zm-1.03,8.67c.18-1.37.24-2.72.58-4.2.21-.09.43-.25.59-.25.22,0,.42.07.61.16,1.47.65,2.94,1.3,4.38,1.95.04.02.08.03.12.05.28.14.53.31.79.47.28.21.44.56.4,1.02-.16,1.33-.33,2.64-.51,3.98-.04.32-.52.7-.8.62-.1-.01-.21-.03-.32-.07-.14-.03-.29-.11-.43-.16-1.35-.61-2.71-1.22-4.06-1.86-.32-.14-.65-.31-.92-.51-.33-.26-.51-.64-.43-1.2Zm-1.03,8.53c.1-.6.16-1.19.26-1.8-.02.02-.04.02-.04.02.07-.6.14-1.19.23-1.79.04-.2.11-.45.34-.56.2-.09.4-.15.56-.13.22.04.4.13.6.2,1.35.61,2.72,1.23,4.07,1.86.3.12.56.25.81.42.15.08.28.21.36.35.16.24.24.56.18.94-.04.41-.1.85-.18,1.26-.1.85-.23,1.7-.36,2.54-.05.35-.51.71-.79.62-.22-.05-.41-.09-.61-.18-1.41-.64-2.81-1.26-4.22-1.91-.18-.08-.36-.18-.54-.27-.53-.29-.76-.8-.67-1.57Zm-1.07,9.27c0-.06.02-.14.02-.18.12-.97.18-1.97.35-2.97.07-.48-.11-1.03.56-1.54.52-.38.77,0,1.09.14,1.37.59,2.73,1.21,4.08,1.84.29.13.54.27.78.47.34.25.47.67.39,1.21-.06.59-.14,1.19-.2,1.62-.16.85-.27,1.51-.39,2.2-.06.24-.46.6-.63.56-.22-.04-.46-.06-.64-.14-1.29-.58-2.55-1.16-3.83-1.75-.17-.08-.35-.17-.51-.24-.23-.11-.45-.23-.65-.37-.25-.18-.42-.46-.42-.83v-.02Zm-140.96,53.49c0-19.66,7.72-41.39,26.3-57.28,14.52-12.12,31.75-18.39,54.43-18.39,11.25,0,35.8,2.1,58.23,20.46-.59,4.77-1.24,9.56-1.96,14.37-.38,2.62-.79,5.25-1.23,7.89-.51,3.27-1.09,6.57-1.74,9.88-.51,2.58-.97,5.17-1.53,7.76-.67,3.08-1.43,6.18-2.17,9.28-1.03,4.33-2.22,8.67-3.57,13.07-.61,2.06-1.26,4.12-1.96,6.19-2.36,6.98-5.13,13.99-8.48,21.04-2.79,5.86-5.96,11.63-9.6,17.33-.24.36-.46.71-.71,1.05-3.26,5.03-6.84,9.83-10.69,14.36-.11.14-.23.27-.35.4-2.85,3.35-5.86,6.55-9.03,9.64-21.61-1.35-49.14-12.16-61.44-22.7-15.88-13.79-24.5-35.12-24.5-54.35Zm55.77,106.15c-.08.04-.13.1-.2.14-1.4.73-2.81,1.44-4.21,2.16-.86.42-1.55.43-2.1.11-.92-.52-1.98-.86-2.76-1.56-.11-.1.02-.44.2-.55.05-.05.12-.1.18-.14,1.47-.79,2.95-1.59,4.42-2.36.57-.31,1.06-.34,1.46-.2.46.2.91.45,1.37.69.63.32,1.24.66,1.85,1,.19.09.02.57-.21.71Zm9.01-5.13c-1.52,1.05-3.05,1.84-4.53,2.67-.61.2-1.06.16-1.42-.02-.96-.5-1.89-.99-2.83-1.49-.09-.03-.15-.15-.2-.21-.09-.12.04-.46.2-.56.05-.06.13-.11.18-.17,1.34-.79,2.67-1.6,4.01-2.4.55-.32,1.09-.46,1.47-.28,1.15.56,2.25,1.17,3.37,1.78.2.11.05.48-.25.68Zm8.64-5.69c-.1.14-.2.28-.33.38-1.25.85-2.48,1.68-3.75,2.5-.56.39-1.08.47-1.46.29-1.15-.55-2.26-1.17-3.37-1.76-.26-.13-.1-.56.32-.85,1.25-.85,2.49-1.68,3.74-2.54.52-.36.91-.36,1.29-.31.13.02.22.06.31.11,1.03.52,2.08,1.06,3.1,1.61.13.06.18.23.25.34-.05.1-.05.18-.1.23Zm7.37-5.21c-1.1.85-2.18,1.67-3.28,2.48-.07.06-.13.1-.2.14-.42.25-.8.36-1.12.26-.19-.07-.39-.14-.57-.23-.87-.43-1.74-.85-2.6-1.3-.18-.09-.33-.2-.49-.32-.16-.11-.08-.51.12-.71.08-.05.14-.12.19-.16,1.15-.9,2.31-1.82,3.46-2.71.39-.3.79-.37,1.12-.3.16.04.3.1.44.14.97.48,1.92.95,2.87,1.43.16.09.33.23.46.38.05.07.01.23.03.37-.13.17-.27.4-.43.53Zm7.45-6.18c-1.13.97-2.24,1.94-3.35,2.9-.4.32-.85.45-1.15.34-1.35-.54-2.65-1.15-3.8-1.95-.14-.1-.06-.52.18-.73,1.17-1.03,2.37-2.06,3.54-3.09.06-.06.14-.07.22-.1.12-.04.24-.1.37-.1.16.02.34.02.47.1,1.18.59,2.36,1.19,3.55,1.8.04.02.05.07.09.1.15.12.09.54-.12.73Zm6.61-6.15c-1.01.99-2.02,1.98-3.05,2.95-.23.24-.53.37-.79.39-.06,0-.1,0-.16-.02-.27-.04-.53-.13-.75-.24-.97-.47-1.92-.95-2.87-1.44-.18-.1-.36-.2-.46-.38-.05-.12.02-.36.1-.56.04-.13.18-.29.28-.39.33-.33.67-.65.99-.98.63-.61,1.25-1.22,1.88-1.82.34-.33.67-.39.93-.34.17.03.33.07.48.15,1.08.53,2.18,1.07,3.28,1.63.12.06.23.18.3.31.06.07.04.22.06.34-.08.13-.13.29-.22.4Zm5.99-6.28c-.9.99-1.81,1.97-2.72,2.95-.33.32-.65.39-.95.32-.19-.04-.39-.11-.57-.2-1.06-.52-2.11-1.05-3.15-1.57-.13-.06-.24-.16-.36-.25-.15-.11-.12-.52.04-.72,1.01-1.12,2-2.24,3.01-3.34.12-.11.28-.14.44-.25.15,0,.37-.03.49.02,1.31.64,2.65,1.29,3.94,1.98.3.15.2.65-.17,1.06Zm2.7-3.37c-.17.02-.29.08-.41.08-.16-.02-.35-.04-.47-.1-1.15-.57-2.31-1.13-3.45-1.71-.14-.07-.23-.18-.36-.29-.12-.1-.1-.5.06-.72.86-1.12,1.75-2.23,2.65-3.34.21-.24.52-.36.78-.34.16.02.32.04.46.12,1.21.57,2.4,1.15,3.58,1.76.19.09.3.27.41.44.03.06-.02.24-.06.37-.01.07-.05.15-.11.22-.84,1.04-1.67,2.09-2.54,3.12-.14.17-.38.29-.54.39Zm11.43,68.13c-.03.11-.2.28-.33.34-.18.13-.39.24-.59.31-1.46.6-2.92,1.17-4.38,1.75-.61.26-1.17.36-1.66.31-.27-.02-.52-.09-.78-.23-.87-.5-1.8-.97-2.66-1.45-.07-.04-.09-.22-.04-.33.05-.1.2-.28.31-.34.27-.14.54-.26.79-.38.49-.18.96-.35,1.42-.53.26-.1.53-.2.78-.3v-.06c.79-.31,1.58-.6,2.4-.93.7-.27,1.28-.28,1.75-.05.99.51,1.96,1.04,2.94,1.59.07.03.1.2.05.3Zm10.19-4.14c-1.49.68-2.96,1.35-4.44,2.03-.52.25-.97.39-1.41.41-.39.02-.75-.04-1.07-.22-.89-.51-1.81-.96-2.69-1.47-.11-.05-.14-.27-.1-.45.08-.22.33-.38.53-.47.86-.4,1.75-.77,2.62-1.15v.02c.66-.32,1.35-.67,2.02-.97.7-.33,1.33-.42,1.8-.17,1.04.52,2.07,1.08,3.1,1.65.09.03.07.18.11.28.02.13-.24.4-.47.51Zm10.08-4.96c-.82.43-1.61.86-2.42,1.28-.67.36-1.33.69-2.02,1.05-.71.37-1.31.44-1.82.26-.1-.03-.2-.07-.29-.12-.2-.08-.38-.18-.56-.28-.81-.41-1.6-.84-2.4-1.29-.06-.04-.06-.2-.08-.31-.02-.12.2-.4.42-.52,1.56-.81,3.09-1.6,4.64-2.42.05-.03.13-.05.38-.14.14-.02.45-.07.72-.03.28.03.52.12.76.25.83.43,1.66.86,2.47,1.33.16.08.3.16.47.26.18.08,0,.52-.27.68Zm9.51-5.3c-.09.12-.25.22-.38.28-1.13.67-2.24,1.34-3.39,1.99-.39.21-.81.39-1.29.63-.29,0-.71.09-.96-.04-.16-.07-.34-.16-.5-.24-.99-.48-1.95-.98-2.91-1.47-.12-.07-.22-.23-.06-.47.06-.12.19-.28.3-.34,1.26-.75,2.53-1.51,3.78-2.25.2-.11.4-.2.6-.31.56-.27,1.06-.36,1.44-.18,1.01.52,2.04,1.03,3.03,1.55.13.08.24.12.36.2.09.04.15.14.15.27,0,.11-.08.27-.17.38Zm8.73-5.44c-1.09.93-2.24,1.52-3.35,2.26-.45.29-.94.55-1.39.73-.51.21-.89.12-1.21-.04-.05-.04-.11-.06-.17-.09-.86-.43-1.7-.86-2.57-1.3-.22-.1-.4-.29-.6-.43-.08-.07,0-.46.13-.56.07-.06.13-.12.18-.18,1.33-.87,2.66-1.74,3.99-2.61.48-.31.93-.4,1.31-.3.09.04.2.06.29.12,1.1.54,2.2,1.09,3.29,1.65.08.06.14.13.2.2.12.09.06.41-.1.55Zm8.13-5.67c-.09.13-.23.26-.36.34-1.12.81-2.22,1.63-3.33,2.4-.56.4-1.12.61-1.51.43-.02-.02-.08-.03-.12-.06-1.26-.6-2.47-1.25-3.7-1.88-.16-.09-.03-.54.22-.73,1.3-.95,2.59-1.92,3.9-2.86.39-.29.79-.35,1.11-.25.11.02.2.05.31.1,1.13.57,2.28,1.14,3.41,1.72.1.08.16.2.24.3,0,.02.01.02.01.04-.07.18-.11.35-.18.45Zm7.48-5.74c-.43.33-.84.67-1.27,1-.02.02-.02.03-.04.03-.78.62-1.54,1.23-2.31,1.84-.24.18-.45.28-.65.28-.11.02-.19.02-.29,0-.22-.04-.43-.1-.61-.18-1.1-.54-2.18-1.09-3.29-1.64-.08-.06-.14-.13-.21-.2-.15-.11-.05-.56.15-.72,1.13-.96,2.26-1.9,3.4-2.83.18-.15.4-.24.6-.35.2-.03.38-.09.56-.1.12,0,.25.01.32.05,1.28.64,2.56,1.28,3.82,1.93.23.12.13.63-.18.89Zm7.01-6.06c-1.04.93-2.08,1.86-3.13,2.79-.42.34-.79.4-1.13.34-.17-.02-.33-.07-.46-.14-1.13-.56-2.27-1.13-3.42-1.7-.04-.02-.08-.05-.13-.07-.27-.2-.21-.67.16-1.03,1.1-1.01,2.2-2,3.32-2.99.27-.25.53-.29.74-.25.23.04.43.09.62.18,1.15.53,2.3,1.08,3.43,1.66.17.08.28.28.4.43.02.03.02.11.02.2-.13.18-.24.42-.42.58Zm7.01-6.97c-.06.15-.12.29-.2.42-1.03,1.12-2.1,2.17-3.23,3.14-.26.23-.53.3-.77.28-.17-.02-.35-.02-.48-.08-1.24-.6-2.49-1.21-3.72-1.82-.08-.06-.14-.14-.21-.2-.16-.13-.13-.51.09-.73.97-1.02,1.96-2.05,2.96-3.06.37-.37.79-.51,1.15-.47.11.02.21.04.31.1,1.28.61,2.58,1.23,3.84,1.88.12.06.2.24.26.36.02.04,0,.13,0,.18Zm5.94-6.2c-.95,1.07-1.9,2.13-2.87,3.18-.28.32-.65.43-.93.38-.16-.04-.33-.06-.47-.13-1.25-.6-2.48-1.19-3.71-1.81-.14-.06-.26-.16-.32-.3-.03-.15,0-.36.06-.56.04-.13.16-.27.28-.39.82-.95,1.65-1.88,2.5-2.81.47-.51.83-.66,1.28-.5.14.04.28.11.43.17,1.06.51,2.13.99,3.17,1.51.27.15.51.34.72.54.06.06.04.22.06.32-.08.14-.11.3-.2.4Zm5.71-6.8c-.74,1.11-1.6,2.14-2.5,3.15-.16.16-.38.28-.52.39-.19.05-.33.13-.43.11-.22-.02-.46-.06-.64-.12-1.2-.58-2.41-1.17-3.6-1.76-.18-.07-.31-.23-.45-.38-.11-.12-.08-.52.12-.75.89-1.12,1.77-2.24,2.69-3.32.22-.25.52-.36.77-.34.12,0,.24,0,.33.03,1.39.67,2.78,1.33,4.15,2.02.08.04.14.14.21.22.09.1.04.52-.13.75Zm5.4-7.06c-.37.56-.73,1.1-1.12,1.62-1.86,2.51-1.77,2.59-3.61,1.7-.95-.47-1.92-.93-2.88-1.39-.19-.09-.33-.24-.47-.36-.13-.13-.11-.51.06-.74.81-1.14,1.63-2.27,2.44-3.41.17-.2.6-.42.78-.4.16.04.34.04.47.1,1.35.63,2.69,1.24,4.02,1.89.21.11.33.35.47.5-.08.22-.08.38-.16.49Zm4.77-6.82c-.68,1.03-1.38,2.06-2.09,3.07-.26.4-.77.63-1.1.52-.25-.09-.49-.18-.72-.28-1.06-.51-2.13-1.01-3.19-1.54-.27-.13-.5-.32-.72-.5-.16-.13-.14-.48,0-.72.77-1.18,1.53-2.33,2.3-3.5.1-.12.26-.22.38-.32.13-.02.27-.1.39-.1.21.02.44.06.62.14,1.3.62,2.6,1.23,3.88,1.84.09.06.18.12.25.16.31.22.33.75,0,1.23Zm4.69-7.41c-.68,1.13-1.39,2.22-2.09,3.33-.22.34-.63.53-.92.46-.2-.07-.4-.12-.58-.22-1.21-.56-2.44-1.11-3.62-1.69-.27-.13-.49-.34-.67-.57-.09-.1-.09-.37,0-.53.64-1.28,1.41-2.52,2.27-3.75.08-.1.24-.18.39-.3.16,0,.37-.04.52,0,.28.08.57.21.85.34,1.02.48,2.04.95,3.05,1.46.28.12.53.28.79.44.24.18.26.6.01,1.03Zm4.33-7.57c-.67,1.19-1.35,2.38-2.04,3.55-.08.13-.24.24-.36.34-.12.04-.27.1-.36.1-.22-.04-.45-.08-.63-.16-1.3-.6-2.58-1.21-3.88-1.83-.18-.09-.34-.21-.48-.35-.22-.22-.26-.58-.02-1.05.61-1.12,1.24-2.24,1.87-3.35.18-.31.67-.57.92-.49.04,0,.11.02.15.04,1.52.69,3.04,1.42,4.55,2.14.15.07.24.21.3.34.1.19.16.41-.02.72Zm3.76-7.1c-.5.97-1.03,1.96-1.56,2.96-.22.41-.76.72-1.07.6-.75-.33-1.51-.66-2.25-1-.67-.31-1.3-.61-1.95-.92-.18-.09-.36-.18-.54-.3-.36-.24-.41-.73-.11-1.34.27-.56.59-1.12.87-1.69,1.01-2.18,1.22-2.42,2.69-1.7,1.09.53,2.22,1.03,3.33,1.57.27.13.53.31.73.51.1.08.1.3.16.5-.1.25-.16.52-.3.81Zm3.84-8.11c-.5,1.13-1.02,2.27-1.56,3.41-.24.48-.63.71-1.01.61-.16-.04-.32-.07-.46-.15-1.34-.61-2.69-1.24-4.03-1.89-.2-.09-.36-.2-.5-.33-.26-.22-.32-.55-.12-1.01.49-1.13,1.03-2.26,1.56-3.4.22-.45.72-.74,1.04-.63.2.05.41.12.59.21,1.27.58,2.51,1.16,3.78,1.76.21.1.44.23.63.41.12.12.16.36.21.5-.05.24-.05.36-.13.51Zm3.59-8.06c-.48,1.26-.99,2.54-1.66,3.82-.18.32-.62.6-.9.52-.11-.04-.21-.04-.31-.08-1.49-.69-2.97-1.38-4.46-2.08-.18-.09-.35-.22-.44-.4-.09-.18-.18-.43-.09-.68.45-1.26.94-2.54,1.58-3.83.14-.24.55-.52.73-.48.22.05.44.07.63.16,1.39.63,2.8,1.29,4.18,1.95.24.11.42.27.6.45.1.1.12.29.16.38,0,.12,0,.19-.02.27Zm3.11-7.58c-.42,1.07-.82,2.13-1.27,3.2-.3.72-.73.97-1.28.79-.14-.05-.29-.11-.43-.18-1.26-.58-2.51-1.16-3.77-1.73-.18-.09-.36-.18-.54-.28-.45-.3-.65-.75-.27-1.58.45-1.06.85-2.12,1.28-3.17.14-.4.56-.68.85-.63.2.05.41.09.59.17,1.37.62,2.7,1.23,4.06,1.86.27.15.52.32.72.53.14.13.16.38.22.52-.08.24-.11.38-.16.5Zm3.17-8.18c-.46,1.19-.89,2.4-1.35,3.6-.06.14-.16.3-.3.4-.08.11-.25.24-.33.26-.26,0-.5.01-.69-.08-1.5-.66-3-1.37-4.49-2.05-.09-.04-.18-.09-.27-.15-.43-.3-.6-.77-.27-1.6.36-.92.65-1.84.99-2.76.07-.2.19-.41.29-.63.14-.28.47-.48.7-.44.17.04.35.06.47.12,1.52.68,3.01,1.35,4.51,2.06.27.12.48.35.68.57.09.1.09.32.11.43-.02.13-.02.2-.05.27Zm2.79-7.71c-.43,1.11-.81,2.23-1.25,3.35-.12.36-.55.65-.83.59-.21-.05-.42-.09-.61-.18-1.41-.63-2.79-1.26-4.18-1.91-.24-.11-.44-.25-.65-.4-.28-.22-.41-.57-.21-1.11.42-1.19.81-2.38,1.26-3.59.05-.16.31-.35.45-.53.22-.02.43-.06.57-.02.32.08.58.2.87.33,1.15.54,2.32,1.07,3.49,1.61.28.12.55.25.81.43.37.27.55.68.28,1.43Zm2.87-8.39c-.42,1.21-.83,2.4-1.27,3.6-.16.48-.63.75-.99.64-.29-.11-.59-.22-.86-.34-1.19-.52-2.34-1.07-3.52-1.61-.29-.12-.55-.25-.83-.41-.45-.3-.63-.76-.32-1.57.34-.99.62-1.96.94-2.95.04-.14.12-.28.2-.42.1-.25.5-.57.69-.55.17.04.35.04.5.12,1.54.68,3.1,1.38,4.65,2.08.18.08.34.2.5.33.29.22.43.56.31,1.08Zm2.52-7.71c-.26.75-.65,1.94-1.08,3.13-.15.47-.63.76-.99.65-.25-.07-.49-.16-.72-.27-1.27-.58-2.52-1.13-3.79-1.71-.36-.18-.71-.4-1.03-.63-.2-.14-.32-.42-.21-.78.35-1.3.79-2.63,1.2-3.95.06-.21.53-.56.71-.54.22.04.45.06.63.13,1.55.7,3.08,1.39,4.62,2.09.18.09.34.22.5.34.29.22.36.59.16,1.54Zm2.76-9.03c-.34,1.54-.78,2.81-1.24,4.06-.13.33-.6.64-.87.59-.22-.06-.41-.11-.61-.2-1.45-.65-2.89-1.3-4.33-1.97-.23-.09-.47-.22-.65-.36-.37-.3-.53-.72-.31-1.44.4-1.18.78-2.36,1.16-3.55.05-.14.4-.42.52-.42s.26-.02.36,0c.11,0,.22.04.31.08,1.59.71,3.17,1.42,4.76,2.14.2.09.36.2.52.32.29.22.43.55.38.75Zm1.35-4.22c-.13.37-.55.7-.83.65-.25-.08-.52-.13-.75-.24-1.41-.63-2.81-1.26-4.22-1.91-.18-.07-.37-.18-.57-.26-.6-.3-.77-.9-.46-1.83.32-1.05.63-2.09.97-3.14.13-.38.58-.7.83-.65.22.05.44.11.62.19,1.51.66,3.01,1.33,4.5,2.02.29.12.55.3.77.46.28.18.37.49.37.92-.41,1.26-.81,2.52-1.23,3.79Zm3.57-11.51c-.32.97-.61,1.95-.91,2.92-.1.27-.26.56-.39.85-.23.07-.44.18-.6.15-.32-.06-.62-.17-.89-.29-1.37-.62-2.73-1.23-4.08-1.84-.26-.13-.56-.26-.81-.42-.43-.28-.6-.79-.32-1.57.36-1.11.67-2.23,1.03-3.35.06-.23.46-.56.68-.54.21.02.45.03.63.11,1.6.7,3.19,1.41,4.79,2.12.18.08.37.18.53.3.45.28.62.77.34,1.56Zm2.65-8.71c-.41,1.32-.85,2.65-1.28,3.99-.06.16-.38.4-.54.38-.16,0-.36.02-.49-.06-1.8-.77-3.58-1.58-5.37-2.37-.14-.06-.25-.16-.38-.26-.29-.23-.39-.59-.21-1.33.25-.89.57-2,.91-3.12.06-.2.2-.44.35-.62.07-.1.27-.26.34-.26.29.02.58.03.81.12,1.66.72,3.31,1.46,4.94,2.2.29.12.53.32.74.52.2.17.29.45.18.81Zm2.51-8.02c-.38,1.19-.74,2.38-1.12,3.58-.07.22-.51.59-.69.57-.23-.02-.48,0-.66-.09-1.75-.76-3.5-1.53-5.23-2.32-.21-.12-.41-.28-.57-.48-.17-.19-.26-.47-.15-.83.36-1.24.75-2.5,1.14-3.76.1-.32.59-.65.86-.58.21.06.43.09.61.16,1.61.72,3.21,1.43,4.8,2.14.33.16.63.37.88.6.13.13.16.38.22.51-.04.23-.06.36-.09.5Zm2.63-8.18c-.4,1.19-.79,2.37-1.19,3.58-.09.24-.5.56-.7.55-.22-.04-.47-.04-.65-.13-1.75-.76-3.5-1.51-5.23-2.3-.27-.14-.51-.34-.69-.57-.12-.16-.22-.42-.12-.66.4-1.32.63-2.62,1.28-3.98.05-.12.21-.22.34-.33.13-.04.28-.11.38-.11.16.02.34.05.47.11,1.75.75,3.49,1.53,5.25,2.31.23.1.44.23.62.39.28.25.42.6.24,1.14Zm2.74-8.37c-.39,1.26-.84,2.52-1.3,3.81-.07.22-.52.54-.7.5-.27-.04-.56-.05-.8-.16-1.65-.72-3.31-1.47-4.95-2.18-.14-.08-.29-.14-.42-.22-.59-.3-.79-.87-.43-1.86.39-1.05.74-2.1,1.12-3.15.04-.1.2-.24.28-.34.15-.06.31-.15.4-.15.24,0,.47.04.65.11,1.75.76,3.52,1.53,5.25,2.32.32.15.59.38.81.65.1.15.16.42.09.67Zm2.8-7.97c-.42,1.19-.85,2.4-1.3,3.6-.15.39-.54.66-.83.59-.27-.06-.54-.11-.78-.22-1.69-.74-3.37-1.5-5.07-2.25-.18-.08-.37-.16-.53-.3-.38-.26-.54-.69-.3-1.4.39-1.06.73-2.11,1.09-3.17.22-.58.67-.88,1.12-.76.16.04.32.08.44.14,1.76.76,3.51,1.52,5.23,2.32.33.14.58.37.85.61.1.08.11.28.14.4-.01.19-.01.32-.06.44Zm2.75-7.45c-.31.85-.61,1.7-.93,2.55-.31.79-.83,1.13-1.43.95-.11-.03-.19-.07-.29-.12-1.74-.76-3.49-1.52-5.25-2.29-.32-.14-.59-.38-.83-.63-.12-.15-.18-.42-.1-.66.36-1.25.76-2.51,1.35-3.8.13-.24.53-.54.73-.52.18,0,.36-.02.5.06,1.94.83,3.89,1.65,5.82,2.52.27.13.47.38.65.59.09.14.07.33.1.49-.1.31-.21.58-.32.86Zm3.29-8.28c-.44,1.05-.87,2.12-1.3,3.19-.15.32-.64.67-.89.63-.21-.02-.44-.04-.64-.11-1.84-.82-3.68-1.61-5.52-2.42-.18-.09-.34-.22-.5-.32-.37-.26-.46-.71-.22-1.32.43-1.12.9-2.25,1.35-3.37.09-.24.54-.54.72-.5.27.04.56.05.79.16,1.8.77,3.61,1.55,5.4,2.34.26.13.52.31.73.51.14.12.18.36.26.5-.08.31-.12.51-.18.71Zm3.21-7.54c-.44.97-.91,1.97-1.36,2.96-.12.26-.5.52-.7.5-.22-.04-.47-.04-.65-.1-1.93-.83-3.88-1.68-5.79-2.53-.27-.13-.49-.36-.69-.58-.14-.14-.19-.38-.08-.67.48-1.25.99-2.54,1.65-3.8.06-.11.24-.2.37-.3.12-.04.26-.12.36-.1.38.1.73.18,1.06.33,1.66.7,3.3,1.43,4.96,2.14.18.08.38.16.56.26.67.38.75.84.31,1.89Zm3.71-8.19c-.44.92-.88,1.84-1.3,2.78-.45,1.01-.86,1.15-1.59.97-.16-.03-.3-.08-.45-.16-1.75-.76-3.5-1.51-5.24-2.28-.33-.16-.62-.35-.87-.59-.24-.21-.3-.54-.09-1.02.54-1.14,1.06-2.27,1.61-3.41.1-.23.54-.54.72-.51.27.04.55.08.79.17,1.91.81,3.8,1.64,5.68,2.47.32.14.58.41.83.65.07.05.05.22.09.36-.06.16-.09.38-.18.57Zm3.78-7.6c-.54,1.06-1.09,2.12-1.65,3.17-.19.36-.61.61-.89.54-.38-.09-.73-.18-1.06-.33-1.71-.73-3.43-1.48-5.12-2.21-.33-.14-.63-.34-.91-.56-.25-.2-.34-.53-.1-1.01.56-1.13,1.13-2.27,1.71-3.39.13-.27.49-.51.73-.49.21.02.46,0,.64.08,2.11.89,4.19,1.8,6.27,2.7.18.09.33.23.46.39.08.12.1.31.14.47-.07.22-.11.42-.22.64Zm2.38-4.44c-.2.36-.62.61-.9.56-.32-.07-.65-.13-.93-.24-1.86-.79-3.7-1.58-5.56-2.4-.24-.1-.45-.23-.65-.37-.38-.27-.41-.72-.09-1.35.52-.97,1.07-1.97,1.63-2.96.23-.39.75-.7,1.09-.63.31.07.61.16.91.28,1.8.77,3.6,1.54,5.41,2.32.49.21.95.41,1.11,1.2-.68,1.21-1.35,2.4-2.02,3.59Zm6.01-10.24c-.57.9-1.14,1.8-1.72,2.71-.29.42-.75.68-1.09.6-.37-.08-.73-.19-1.07-.34-1.72-.73-3.42-1.46-5.12-2.21-.42-.18-.8-.46-1.14-.74-.14-.12-.16-.4,0-.71.66-1.21,1.29-2.41,2.15-3.55.09-.12.25-.2.37-.28.1-.02.2-.06.3-.06.02,0,.05.02.07.02.38.07.76.12,1.1.27,1.8.76,3.6,1.55,5.41,2.33.29.12.57.25.79.43.51.42.49.64-.05,1.53Zm5.02-7.77c-.42.68-.88,1.37-1.35,2.05-1.21,1.8-1.31,2.08-2.85,1.43-1.85-.76-3.69-1.57-5.53-2.36-.38-.16-.75-.32-.97-.68-.09-.2-.13-.44.07-.75.7-1.09,1.42-2.2,2.15-3.27.14-.22.59-.49.75-.46.38.06.78.09,1.12.24,1.24.5,2.47,1.03,3.7,1.57.7.28,1.42.57,2.11.91.32.15.59.38.84.6.08.07.09.19.13.31-.05.14-.07.28-.17.41Zm5.15-7.07c-.8,1.08-1.59,2.15-2.4,3.21-.26.34-.63.52-.95.48-.3-.06-.64-.12-.93-.24-2-.85-3.98-1.7-5.96-2.57-.24-.1-.48-.22-.64-.39-.14-.15-.18-.38-.27-.56.75-1.25,1.59-2.38,2.47-3.49.28-.35.67-.58.94-.53.38.07.76.13,1.1.27,1.98.85,3.98,1.69,5.97,2.58.27.11.49.32.72.52.14.11.11.49-.05.72Zm5.38-6.77c-.77.99-1.56,1.96-2.35,2.91-.34.44-.69.6-1.11.52-.32-.04-.64-.1-.93-.2-2-.85-3.99-1.7-5.97-2.55-.05-.02-.09-.04-.15-.07-1.11-.55-.93-.94.2-2.31.67-.83,1.3-1.71,2.06-2.42.73-.23,1.22-.03,1.7.16,1.24.53,2.46,1.05,3.69,1.57.76.33,1.53.63,2.27.98.27.12.51.32.74.5.19.16.15.56-.15.91Zm5.51-6.19c-.69.76-1.36,1.5-2.04,2.23-.22.24-.51.38-.74.56-.29,0-.55.06-.76.02-.27-.05-.5-.16-.74-.26-1.91-.8-3.8-1.61-5.72-2.42-.18-.08-.38-.16-.55-.26-.87-.49-.87-.79.25-2.02.69-.73,1.37-1.49,2.06-2.21.23-.26.52-.4.75-.38.29,0,.6,0,.85.09.4.11.78.29,1.15.45,1.57.67,3.14,1.34,4.69,2.02.34.15.68.27,1,.43.73.4.64.79-.2,1.75Zm6.9-7.12c-1.01,1.01-2.02,2.02-3.03,3.01-.25.24-.56.34-.78.3-.48-.06-.99-.14-1.4-.32-1.84-.75-3.65-1.53-5.45-2.31-.38-.16-.74-.34-1.08-.56-.13-.06-.19-.23-.23-.39-.02-.09.04-.26.08-.38.02-.08.06-.14.12-.22.88-.89,1.72-1.82,2.63-2.72.43-.45.92-.61,1.33-.57.33.05.65.12.94.23,2.11.88,4.2,1.77,6.29,2.67.29.13.51.33.73.52.06.07.03.21.04.34-.04.13-.08.31-.19.4Zm6.99-6.45s-.09.12-.14.17c-1.07.96-2.11,1.92-3.15,2.85-.13.11-.28.17-.46.28-.14.03-.36.1-.52.08-.43-.07-.86-.14-1.26-.3-2.06-.85-4.1-1.74-6.13-2.61-.29-.14-.51-.33-.76-.51-.16-.11-.1-.52.11-.72,1.03-.95,2.06-1.93,3.12-2.87.37-.34.81-.43,1.16-.4.32.02.64.11.93.22,2.14.9,4.29,1.82,6.44,2.74.32.13.68.25.77.67.02.09-.05.25-.11.4Zm7.2-5.88c-1.26,1.04-2.53,2.13-3.78,2.99-.66.15-1.15.05-1.58-.13-2.24-.91-4.48-1.85-6.7-2.83-1.01-.43-.78-.91.41-1.88.82-.67,1.64-1.34,2.49-2.01.39-.33.81-.43,1.14-.38.42.07.86.17,1.23.33,2.12.86,4.2,1.74,6.28,2.65.29.1.51.32.74.5.13.1-.01.58-.23.76Zm8.04-6.01c-.11.12-.23.26-.35.34-1.11.8-2.23,1.58-3.33,2.39-.41.3-.79.43-1.15.38-.38-.06-.77-.1-1.1-.24-2.24-.93-4.48-1.89-6.7-2.85-.32-.14-.64-.29-.6-.85,1.33-1.25,2.81-2.16,4.16-3.15.66-.16,1.17-.12,1.62.06,2.38.99,4.74,1.98,7.12,2.99.18.08.31.25.45.4.11.08.04.41-.12.53Zm8.56-5.62c-1.46,1.08-2.91,1.91-4.38,2.87-.18.1-.41.16-.57.14-.46-.04-.93-.06-1.31-.22-2.34-.95-4.67-1.94-7.01-2.93-.27-.13-.52-.31-.47-.78.18-.16.35-.36.55-.49,1.11-.73,2.23-1.47,3.37-2.22.55-.35,1.06-.5,1.51-.41.37.07.76.15,1.1.29,2.2.9,4.38,1.82,6.56,2.76.24.09.45.23.61.43.1.09.04.34.04.56Zm4.67-2.76c-.55.3-1.06.4-1.5.29-.25-.07-.54-.11-.77-.2-2.34-.99-4.69-1.97-7.01-2.98-.22-.08-.36-.32-.51-.53-.01-.04.07-.28.17-.38.1-.11.24-.2.39-.29,1.06-.64,2.13-1.26,3.21-1.91,1.06-.63,1.98-.81,2.74-.45.12.05.29.09.43.16,2.2.92,4.4,1.82,6.6,2.75.24.1.45.24.63.42.08.09.04.33.06.53-1.48.99-2.96,1.76-4.44,2.59Zm13.93-7.57c-.19.14-.37.31-.57.42-1.28.64-2.56,1.29-3.82,1.94-.15.06-.27.11-.58.24-.22.02-.61.1-.93.06-.4-.03-.76-.12-1.11-.26-2.3-.94-4.6-1.9-6.88-2.87-.19-.07-.33-.22-.49-.34-.16-.11-.04-.56.2-.71.2-.12.39-.28.59-.39,1.14-.6,2.3-1.17,3.43-1.77.77-.41,1.46-.52,2.06-.39.26.05.53.12.77.21,2.34.98,4.69,1.95,7.01,2.94.2.07.32.23.49.36.09.07-.02.45-.17.56Zm10.28-4.73c-1.74.93-3.49,1.72-5.23,2.38-.3.14-.63.15-.91.12-.44-.06-.89-.14-1.27-.3-2.29-.93-4.57-1.88-6.87-2.87-.23-.1-.41-.28-.61-.42-.07-.06.09-.47.23-.57.28-.16.53-.35.8-.48.87-.39,1.75-.77,3.03-1.37,1.44-.88,2.77-.74,4-.17,2.02.91,4.11,1.72,6.15,2.59.32.14.6.36.88.56.13.08-.02.45-.2.53Zm11.21-4.79c-.06.12-.18.32-.24.36-1.82.75-3.63,1.54-5.43,2.2-.49.18-.98.11-1.42.07-.4-.03-.75-.18-1.09-.32-2.25-.92-4.49-1.86-6.74-2.81-.23-.09-.45-.22-.61-.42-.08-.07.04-.34.05-.56,1.8-.83,3.54-1.44,5.26-2.12.62-.26,1.17-.32,1.66-.18.36.08.74.16,1.07.3,2.26.92,4.5,1.86,6.76,2.81.27.11.51.31.73.49.04.02.04.12,0,.18Z"/>
</svg>